<svg width="24" height="24" viewBox="0 0 24 24" fill="none" xmlns="http://www.w3.org/2000/svg">
<path d="M17.25 3.5L14.75 7.25C14.25 6.9842 13.25 6.49995 12 6.49995C9 6.49995 6.5 8.99995 6.5 11.75C6.5 14.5 8.5 17.5003 12 17.5003C14.8 17.5003 16.75 15.5002 16.75 14.0002H12V10.5001C15.5 10.5001 22 10.5 22 10.5C22.25 14.2501 21.1448 16.4502 19.75 18.25C17.6621 20.944 14.5856 22.0001 12 22.0001C7 22.0001 2 18.0003 2 11.75C2 5.75 7.36185 2 11.5 2C15.6382 2 17.25 3.5 17.25 3.5Z" fill="white"/>
</svg>
