<svg width="665" height="578" viewBox="0 0 665 578" fill="none" xmlns="http://www.w3.org/2000/svg">
<circle cx="67.9474" cy="322.947" r="3.94737" fill="#006A7A" fill-opacity="0.1"/>
<circle cx="67.9474" cy="341.369" r="3.94737" fill="#006A7A" fill-opacity="0.1"/>
<circle cx="67.9474" cy="359.789" r="3.94737" fill="#006A7A" fill-opacity="0.1"/>
<circle cx="67.9474" cy="378.211" r="3.94737" fill="#006A7A" fill-opacity="0.1"/>
<circle cx="67.9474" cy="396.631" r="3.94737" fill="#006A7A" fill-opacity="0.1"/>
<circle cx="67.9474" cy="415.053" r="3.94737" fill="#006A7A" fill-opacity="0.1"/>
<circle cx="86.3685" cy="359.789" r="3.94737" fill="#006A7A" fill-opacity="0.1"/>
<circle cx="86.3685" cy="378.211" r="3.94737" fill="#006A7A" fill-opacity="0.1"/>
<circle cx="86.3685" cy="322.947" r="3.94737" fill="#006A7A" fill-opacity="0.1"/>
<circle cx="86.3685" cy="341.369" r="3.94737" fill="#006A7A" fill-opacity="0.1"/>
<circle cx="104.789" cy="359.789" r="3.94737" fill="#006A7A" fill-opacity="0.1"/>
<circle cx="104.789" cy="378.211" r="3.94737" fill="#006A7A" fill-opacity="0.1"/>
<circle cx="86.3685" cy="396.631" r="3.94737" fill="#006A7A" fill-opacity="0.1"/>
<circle cx="86.3685" cy="415.053" r="3.94737" fill="#006A7A" fill-opacity="0.1"/>
<circle cx="123.211" cy="359.789" r="3.94737" fill="#006A7A" fill-opacity="0.1"/>
<circle cx="123.211" cy="378.211" r="3.94737" fill="#006A7A" fill-opacity="0.1"/>
<circle cx="104.789" cy="322.947" r="3.94737" fill="#006A7A" fill-opacity="0.1"/>
<circle cx="104.789" cy="341.369" r="3.94737" fill="#006A7A" fill-opacity="0.1"/>
<circle cx="141.632" cy="359.789" r="3.94737" fill="#006A7A" fill-opacity="0.1"/>
<circle cx="141.632" cy="378.211" r="3.94737" fill="#006A7A" fill-opacity="0.1"/>
<circle cx="104.789" cy="396.631" r="3.94737" fill="#006A7A" fill-opacity="0.1"/>
<circle cx="104.789" cy="415.053" r="3.94737" fill="#006A7A" fill-opacity="0.1"/>
<circle cx="160.053" cy="359.789" r="3.94737" fill="#006A7A" fill-opacity="0.1"/>
<circle cx="160.053" cy="378.211" r="3.94737" fill="#006A7A" fill-opacity="0.1"/>
<circle cx="123.211" cy="322.947" r="3.94737" fill="#006A7A" fill-opacity="0.1"/>
<circle cx="123.211" cy="341.369" r="3.94737" fill="#006A7A" fill-opacity="0.1"/>
<circle cx="123.211" cy="396.631" r="3.94737" fill="#006A7A" fill-opacity="0.1"/>
<circle cx="123.211" cy="415.053" r="3.94737" fill="#006A7A" fill-opacity="0.1"/>
<circle cx="141.632" cy="322.947" r="3.94737" fill="#006A7A" fill-opacity="0.1"/>
<circle cx="141.632" cy="341.369" r="3.94737" fill="#006A7A" fill-opacity="0.1"/>
<circle cx="141.632" cy="396.631" r="3.94737" fill="#006A7A" fill-opacity="0.1"/>
<circle cx="141.632" cy="415.053" r="3.94737" fill="#006A7A" fill-opacity="0.1"/>
<circle cx="160.053" cy="322.947" r="3.94737" fill="#006A7A" fill-opacity="0.1"/>
<circle cx="160.053" cy="341.369" r="3.94737" fill="#006A7A" fill-opacity="0.1"/>
<circle cx="160.053" cy="396.631" r="3.94737" fill="#006A7A" fill-opacity="0.1"/>
<circle cx="160.053" cy="415.053" r="3.94737" fill="#006A7A" fill-opacity="0.1"/>
<rect x="142.077" y="39.6367" width="429.592" height="429.592" rx="23.3474" fill="#FDBD4D"/>
<g clip-path="url(#clip0_8_130)">
<rect x="57" y="112.09" width="429.592" height="429.592" rx="23.3474" transform="rotate(-15 57 112.09)" fill="#319D8E"/>
<path d="M410.972 480.832C410.972 480.832 396.486 435.218 405.27 409.039C413.469 384.607 434.765 382.471 447.523 360.457C468.199 324.776 471.293 255.526 471.293 255.526L429.825 100.765C429.825 100.765 369.782 34.0976 333.617 53.2235C309.872 65.7807 303.861 86.8321 298.128 114.418C289.665 155.138 320.096 177.014 326.074 218.713C331.982 259.932 332.003 283.789 328.612 325.008C323.986 381.249 292.349 408.132 296.117 464.73C298.671 503.085 287.591 545.655 321.659 560.054C346.533 570.567 370.623 564.112 386.908 542.57C409.212 513.066 361.535 485.615 361.366 447.247C361.188 406.66 377.395 386.751 389.044 348.481C402.347 304.775 424.003 283.877 425.894 237.641C427.975 186.76 426.384 147.808 391.938 110.917C375.112 92.8961 361.753 68.1108 339.927 76.774C312.645 87.6034 354.042 123.583 360.661 154.154C373.769 214.689 403.106 256.076 379.127 311.473C371.528 329.03 352.812 352.179 352.812 352.179L335.812 427.651L342.263 514.868" stroke="white" stroke-opacity="0.44" stroke-width="4.66948"/>
<path d="M232.053 512.206C232.053 512.206 214.56 455.371 221.898 423.791C228.746 394.317 250.259 392.991 261.886 366.76C280.732 324.247 279.669 239.484 279.669 239.484L228.125 47.1182C228.125 47.1182 163.055 -38.3111 127.463 -17.046C104.095 -3.08431 99.264 22.3745 95.1136 55.8657C88.987 105.304 121.242 133.988 129.85 185.504C138.359 236.427 139.829 265.693 138.887 316.052C137.602 384.762 107.083 415.818 114.351 485.477C119.276 532.682 110.602 584.23 146.099 603.963C172.017 618.371 196.107 611.916 211.348 586.48C232.223 551.642 182.102 515.07 179.6 467.993C176.953 418.195 192.214 394.756 201.728 348.517C212.593 295.711 233.332 271.391 232.445 214.787C231.468 152.496 227.486 104.617 190.238 57.2698C172.044 34.1416 156.961 2.92568 135.307 12.2271C108.238 23.8542 152.494 70.5058 161.079 108.41C178.077 183.465 210.406 236.018 189.402 302.516C182.745 323.593 165.132 350.853 165.132 350.853L152.439 442.402L164.293 549.785" stroke="white" stroke-opacity="0.44" stroke-width="4.66948"/>
</g>
<g filter="url(#filter0_b_8_130)">
<rect x="365" y="478" width="300" height="100" rx="20" fill="white" fill-opacity="0.8"/>
</g>
<path d="M468.92 522V519.72L474.392 513.888C475.128 513.088 475.656 512.384 475.976 511.776C476.296 511.152 476.456 510.52 476.456 509.88C476.456 508.248 475.472 507.432 473.504 507.432C471.968 507.432 470.552 508.008 469.256 509.16L468.224 506.856C468.896 506.248 469.736 505.76 470.744 505.392C471.752 505.024 472.8 504.84 473.888 504.84C475.696 504.84 477.08 505.248 478.04 506.064C479.016 506.88 479.504 508.048 479.504 509.568C479.504 510.592 479.256 511.576 478.76 512.52C478.28 513.464 477.52 514.48 476.48 515.568L472.76 519.456H480.152V522H468.92ZM489.215 522.24C488.111 522.24 487.039 522.072 485.999 521.736C484.959 521.384 484.111 520.912 483.455 520.32L484.463 517.968C485.919 519.088 487.487 519.648 489.167 519.648C490.175 519.648 490.959 519.392 491.519 518.88C492.095 518.352 492.383 517.648 492.383 516.768C492.383 515.872 492.111 515.152 491.567 514.608C491.023 514.048 490.279 513.768 489.335 513.768C487.991 513.768 486.879 514.304 485.999 515.376H483.935V505.08H494.327V507.624H486.935V512.208C487.783 511.568 488.823 511.248 490.055 511.248C491.127 511.248 492.055 511.48 492.839 511.944C493.639 512.392 494.255 513.024 494.687 513.84C495.135 514.64 495.359 515.576 495.359 516.648C495.359 517.752 495.111 518.728 494.615 519.576C494.119 520.408 493.407 521.064 492.479 521.544C491.567 522.008 490.479 522.24 489.215 522.24ZM503.941 522.24C501.941 522.24 500.413 521.488 499.357 519.984C498.301 518.464 497.773 516.304 497.773 513.504C497.773 510.672 498.301 508.52 499.357 507.048C500.413 505.576 501.941 504.84 503.941 504.84C505.957 504.84 507.485 505.576 508.525 507.048C509.581 508.52 510.109 510.664 510.109 513.48C510.109 516.296 509.581 518.464 508.525 519.984C507.469 521.488 505.941 522.24 503.941 522.24ZM503.941 519.72C505.029 519.72 505.829 519.224 506.341 518.232C506.869 517.224 507.133 515.64 507.133 513.48C507.133 511.336 506.869 509.784 506.341 508.824C505.829 507.848 505.029 507.36 503.941 507.36C502.869 507.36 502.069 507.848 501.541 508.824C501.013 509.784 500.749 511.336 500.749 513.48C500.749 515.64 501.013 517.224 501.541 518.232C502.069 519.224 502.869 519.72 503.941 519.72ZM513.172 522V505.08H516.172V515.256H516.22L520.948 510.264H524.572L519.244 515.88L524.908 522H521.236L516.22 516.768H516.172V522H513.172Z" fill="#595959"/>
<path d="M473.34 552.18C472.233 552.18 471.22 552.04 470.3 551.76C469.38 551.467 468.6 551.06 467.96 550.54L468.62 548.9C469.287 549.407 470 549.787 470.76 550.04C471.52 550.293 472.38 550.42 473.34 550.42C474.473 550.42 475.307 550.22 475.84 549.82C476.387 549.407 476.66 548.873 476.66 548.22C476.66 547.687 476.467 547.267 476.08 546.96C475.693 546.64 475.047 546.387 474.14 546.2L472 545.76C470.733 545.493 469.787 545.053 469.16 544.44C468.547 543.827 468.24 543 468.24 541.96C468.24 541.12 468.46 540.38 468.9 539.74C469.353 539.1 469.98 538.607 470.78 538.26C471.58 537.9 472.5 537.72 473.54 537.72C474.5 537.72 475.387 537.867 476.2 538.16C477.027 538.44 477.727 538.853 478.3 539.4L477.62 540.98C476.487 539.98 475.12 539.48 473.52 539.48C472.533 539.48 471.747 539.7 471.16 540.14C470.587 540.58 470.3 541.167 470.3 541.9C470.3 542.46 470.48 542.907 470.84 543.24C471.2 543.573 471.8 543.827 472.64 544L474.76 544.44C476.093 544.72 477.087 545.153 477.74 545.74C478.393 546.313 478.72 547.093 478.72 548.08C478.72 548.907 478.5 549.627 478.06 550.24C477.62 550.853 477 551.333 476.2 551.68C475.4 552.013 474.447 552.18 473.34 552.18ZM485.363 552.18C484.136 552.18 483.223 551.867 482.623 551.24C482.023 550.613 481.723 549.707 481.723 548.52V543.8H479.823V542.24H481.723V539.3H483.743V542.24H486.763V543.8H483.743V548.36C483.743 549.067 483.889 549.6 484.183 549.96C484.489 550.32 484.983 550.5 485.663 550.5C485.876 550.5 486.083 550.48 486.283 550.44C486.483 550.387 486.683 550.327 486.883 550.26L487.203 551.78C487.003 551.9 486.723 551.993 486.363 552.06C486.016 552.14 485.683 552.18 485.363 552.18ZM492.387 552.18C490.027 552.18 488.847 550.867 488.847 548.24V542.24H490.867V548.26C490.867 549.047 491.027 549.627 491.347 550C491.667 550.373 492.174 550.56 492.867 550.56C493.627 550.56 494.241 550.307 494.707 549.8C495.187 549.293 495.427 548.613 495.427 547.76V542.24H497.447V552H495.487V550.44C495.167 551.013 494.741 551.447 494.207 551.74C493.674 552.033 493.067 552.18 492.387 552.18ZM504.414 552.18C503.561 552.18 502.808 551.98 502.154 551.58C501.514 551.167 501.014 550.58 500.654 549.82C500.294 549.06 500.114 548.16 500.114 547.12C500.114 546.08 500.294 545.187 500.654 544.44C501.014 543.68 501.514 543.093 502.154 542.68C502.794 542.267 503.548 542.06 504.414 542.06C505.148 542.06 505.801 542.22 506.374 542.54C506.948 542.86 507.374 543.293 507.654 543.84V537.9H509.674V552H507.694V550.3C507.414 550.887 506.981 551.347 506.394 551.68C505.821 552.013 505.161 552.18 504.414 552.18ZM504.934 550.62C505.761 550.62 506.428 550.32 506.934 549.72C507.441 549.12 507.694 548.253 507.694 547.12C507.694 545.987 507.441 545.127 506.934 544.54C506.428 543.94 505.761 543.64 504.934 543.64C504.094 543.64 503.421 543.94 502.914 544.54C502.408 545.127 502.154 545.987 502.154 547.12C502.154 548.253 502.408 549.12 502.914 549.72C503.421 550.32 504.094 550.62 504.934 550.62ZM517.491 552.18C515.891 552.18 514.631 551.733 513.711 550.84C512.791 549.933 512.331 548.7 512.331 547.14C512.331 546.14 512.531 545.26 512.931 544.5C513.344 543.727 513.911 543.127 514.631 542.7C515.351 542.273 516.177 542.06 517.111 542.06C518.457 542.06 519.517 542.493 520.291 543.36C521.064 544.213 521.451 545.393 521.451 546.9V547.58H514.291C514.437 549.607 515.511 550.62 517.511 550.62C518.071 550.62 518.617 550.533 519.151 550.36C519.697 550.187 520.211 549.9 520.691 549.5L521.291 550.9C520.851 551.3 520.284 551.613 519.591 551.84C518.897 552.067 518.197 552.18 517.491 552.18ZM517.191 543.48C516.351 543.48 515.684 543.74 515.191 544.26C514.697 544.78 514.397 545.473 514.291 546.34H519.751C519.711 545.433 519.471 544.733 519.031 544.24C518.591 543.733 517.977 543.48 517.191 543.48ZM524.053 552V542.24H526.013V543.86C526.346 543.273 526.799 542.827 527.373 542.52C527.959 542.213 528.613 542.06 529.333 542.06C531.639 542.06 532.793 543.367 532.793 545.98V552H530.773V546.1C530.773 545.26 530.606 544.647 530.273 544.26C529.953 543.873 529.446 543.68 528.753 543.68C527.939 543.68 527.286 543.94 526.793 544.46C526.313 544.967 526.073 545.64 526.073 546.48V552H524.053ZM540.136 552.18C538.91 552.18 537.996 551.867 537.396 551.24C536.796 550.613 536.496 549.707 536.496 548.52V543.8H534.596V542.24H536.496V539.3H538.516V542.24H541.536V543.8H538.516V548.36C538.516 549.067 538.663 549.6 538.956 549.96C539.263 550.32 539.756 550.5 540.436 550.5C540.65 550.5 540.856 550.48 541.056 550.44C541.256 550.387 541.456 550.327 541.656 550.26L541.976 551.78C541.776 551.9 541.496 551.993 541.136 552.06C540.79 552.14 540.456 552.18 540.136 552.18ZM547.101 552.18C546.301 552.18 545.554 552.08 544.861 551.88C544.168 551.667 543.588 551.373 543.121 551L543.701 549.64C544.194 549.987 544.734 550.253 545.321 550.44C545.921 550.627 546.521 550.72 547.121 550.72C547.828 550.72 548.361 550.593 548.721 550.34C549.081 550.087 549.261 549.747 549.261 549.32C549.261 548.973 549.141 548.707 548.901 548.52C548.661 548.32 548.301 548.167 547.821 548.06L545.921 547.68C544.241 547.333 543.401 546.467 543.401 545.08C543.401 544.16 543.768 543.427 544.501 542.88C545.234 542.333 546.194 542.06 547.381 542.06C548.061 542.06 548.708 542.16 549.321 542.36C549.948 542.56 550.468 542.86 550.881 543.26L550.301 544.62C549.901 544.273 549.441 544.007 548.921 543.82C548.401 543.633 547.888 543.54 547.381 543.54C546.688 543.54 546.161 543.673 545.801 543.94C545.441 544.193 545.261 544.54 545.261 544.98C545.261 545.647 545.701 546.073 546.581 546.26L548.481 546.64C549.348 546.813 550.001 547.107 550.441 547.52C550.894 547.933 551.121 548.493 551.121 549.2C551.121 550.133 550.754 550.867 550.021 551.4C549.288 551.92 548.314 552.18 547.101 552.18ZM559.682 552V537.9H561.422L566.642 547.64L571.842 537.9H573.542V552H571.682V541.66L567.262 549.84H566.002L561.562 541.7V552H559.682ZM581.629 552.18C580.029 552.18 578.769 551.733 577.849 550.84C576.929 549.933 576.469 548.7 576.469 547.14C576.469 546.14 576.669 545.26 577.069 544.5C577.482 543.727 578.049 543.127 578.769 542.7C579.489 542.273 580.316 542.06 581.249 542.06C582.596 542.06 583.656 542.493 584.429 543.36C585.202 544.213 585.589 545.393 585.589 546.9V547.58H578.429C578.576 549.607 579.649 550.62 581.649 550.62C582.209 550.62 582.756 550.533 583.289 550.36C583.836 550.187 584.349 549.9 584.829 549.5L585.429 550.9C584.989 551.3 584.422 551.613 583.729 551.84C583.036 552.067 582.336 552.18 581.629 552.18ZM581.329 543.48C580.489 543.48 579.822 543.74 579.329 544.26C578.836 544.78 578.536 545.473 578.429 546.34H583.889C583.849 545.433 583.609 544.733 583.169 544.24C582.729 543.733 582.116 543.48 581.329 543.48ZM588.231 552V542.24H590.191V543.82C590.484 543.26 590.891 542.827 591.411 542.52C591.931 542.213 592.538 542.06 593.231 542.06C594.724 542.06 595.691 542.713 596.131 544.02C596.438 543.407 596.878 542.927 597.451 542.58C598.024 542.233 598.678 542.06 599.411 542.06C601.598 542.06 602.691 543.367 602.691 545.98V552H600.671V546.08C600.671 545.253 600.524 544.647 600.231 544.26C599.951 543.873 599.484 543.68 598.831 543.68C598.098 543.68 597.518 543.94 597.091 544.46C596.664 544.967 596.451 545.66 596.451 546.54V552H594.431V546.08C594.431 545.253 594.291 544.647 594.011 544.26C593.731 543.873 593.264 543.68 592.611 543.68C591.878 543.68 591.298 543.94 590.871 544.46C590.458 544.967 590.251 545.66 590.251 546.54V552H588.231ZM611.155 552.18C610.409 552.18 609.749 552.013 609.175 551.68C608.602 551.347 608.175 550.9 607.895 550.34V552H605.915V537.9H607.935V543.82C608.229 543.287 608.655 542.86 609.215 542.54C609.789 542.22 610.435 542.06 611.155 542.06C612.022 542.06 612.775 542.267 613.415 542.68C614.069 543.093 614.569 543.68 614.915 544.44C615.275 545.187 615.455 546.08 615.455 547.12C615.455 548.16 615.275 549.06 614.915 549.82C614.569 550.58 614.069 551.167 613.415 551.58C612.775 551.98 612.022 552.18 611.155 552.18ZM610.655 550.62C611.495 550.62 612.162 550.32 612.655 549.72C613.162 549.12 613.415 548.253 613.415 547.12C613.415 545.987 613.162 545.127 612.655 544.54C612.162 543.94 611.495 543.64 610.655 543.64C609.815 543.64 609.142 543.94 608.635 544.54C608.142 545.127 607.895 545.987 607.895 547.12C607.895 548.253 608.142 549.12 608.635 549.72C609.142 550.32 609.815 550.62 610.655 550.62ZM622.712 552.18C621.112 552.18 619.852 551.733 618.932 550.84C618.012 549.933 617.552 548.7 617.552 547.14C617.552 546.14 617.752 545.26 618.152 544.5C618.565 543.727 619.132 543.127 619.852 542.7C620.572 542.273 621.398 542.06 622.332 542.06C623.678 542.06 624.738 542.493 625.512 543.36C626.285 544.213 626.672 545.393 626.672 546.9V547.58H619.512C619.658 549.607 620.732 550.62 622.732 550.62C623.292 550.62 623.838 550.533 624.372 550.36C624.918 550.187 625.432 549.9 625.912 549.5L626.512 550.9C626.072 551.3 625.505 551.613 624.812 551.84C624.118 552.067 623.418 552.18 622.712 552.18ZM622.412 543.48C621.572 543.48 620.905 543.74 620.412 544.26C619.918 544.78 619.618 545.473 619.512 546.34H624.972C624.932 545.433 624.692 544.733 624.252 544.24C623.812 543.733 623.198 543.48 622.412 543.48ZM629.274 552V542.24H631.234V543.98C631.741 542.82 632.794 542.173 634.394 542.04L635.054 542L635.194 543.72L633.974 543.84C632.201 544.013 631.314 544.927 631.314 546.58V552H629.274Z" fill="#545567"/>
<rect x="393" y="503" width="50" height="50" rx="8" fill="#006A7A"/>
<g clip-path="url(#clip1_8_130)">
<path d="M411.125 514.25C410.583 514.25 410.143 514.69 410.143 515.232V517.196H412.107V515.232C412.107 514.69 411.667 514.25 411.125 514.25Z" fill="white"/>
<path d="M424.875 514.25C424.333 514.25 423.893 514.69 423.893 515.232V517.196H425.857V515.232C425.857 514.69 425.417 514.25 424.875 514.25Z" fill="white"/>
<path d="M428.804 517.197H425.857V521.126C425.857 521.668 425.417 522.108 424.875 522.108C424.333 522.108 423.893 521.668 423.893 521.126V517.197H412.107V521.126C412.107 521.668 411.667 522.108 411.125 522.108C410.583 522.108 410.143 521.668 410.143 521.126V517.197H407.196C405.569 517.197 404.25 518.516 404.25 520.144V538.804C404.25 540.432 405.569 541.751 407.196 541.751H428.804C430.431 541.751 431.75 540.432 431.75 538.804V520.144C431.75 518.516 430.431 517.197 428.804 517.197ZM429.786 538.804C429.786 539.347 429.346 539.787 428.804 539.787H407.196C406.654 539.787 406.214 539.347 406.214 538.804V526.037H429.786V538.804Z" fill="white"/>
<path d="M412.107 528H410.143C409.6 528 409.161 528.44 409.161 528.982C409.161 529.525 409.6 529.964 410.143 529.964H412.107C412.65 529.964 413.089 529.525 413.089 528.982C413.089 528.44 412.65 528 412.107 528Z" fill="white"/>
<path d="M418.982 528H417.018C416.475 528 416.036 528.44 416.036 528.982C416.036 529.525 416.475 529.964 417.018 529.964H418.982C419.525 529.964 419.964 529.525 419.964 528.982C419.964 528.44 419.525 528 418.982 528Z" fill="white"/>
<path d="M425.857 528H423.893C423.35 528 422.911 528.44 422.911 528.982C422.911 529.525 423.35 529.964 423.893 529.964H425.857C426.4 529.964 426.839 529.525 426.839 528.982C426.839 528.44 426.399 528 425.857 528Z" fill="white"/>
<path d="M412.107 531.928H410.143C409.6 531.928 409.161 532.367 409.161 532.91C409.161 533.452 409.6 533.892 410.143 533.892H412.107C412.65 533.892 413.089 533.452 413.089 532.91C413.089 532.367 412.65 531.928 412.107 531.928Z" fill="white"/>
<path d="M418.982 531.928H417.018C416.475 531.928 416.036 532.367 416.036 532.91C416.036 533.452 416.475 533.892 417.018 533.892H418.982C419.525 533.892 419.964 533.452 419.964 532.91C419.964 532.367 419.525 531.928 418.982 531.928Z" fill="white"/>
<path d="M425.857 531.928H423.893C423.35 531.928 422.911 532.367 422.911 532.91C422.911 533.452 423.35 533.892 423.893 533.892H425.857C426.4 533.892 426.839 533.452 426.839 532.91C426.839 532.367 426.399 531.928 425.857 531.928Z" fill="white"/>
<path d="M412.107 535.857H410.143C409.6 535.857 409.161 536.297 409.161 536.84C409.161 537.382 409.6 537.822 410.143 537.822H412.107C412.65 537.822 413.089 537.382 413.089 536.84C413.089 536.297 412.65 535.857 412.107 535.857Z" fill="white"/>
<path d="M418.982 535.857H417.018C416.475 535.857 416.036 536.297 416.036 536.84C416.036 537.382 416.475 537.822 417.018 537.822H418.982C419.525 537.822 419.964 537.382 419.964 536.84C419.964 536.297 419.525 535.857 418.982 535.857Z" fill="white"/>
<path d="M425.857 535.857H423.893C423.35 535.857 422.911 536.297 422.911 536.84C422.911 537.382 423.35 537.822 423.893 537.822H425.857C426.4 537.822 426.839 537.382 426.839 536.84C426.839 536.297 426.399 535.857 425.857 535.857Z" fill="white"/>
</g>
<g filter="url(#filter1_d_8_130)">
<path d="M24 337C24 332.582 27.5817 329 32 329H237C241.418 329 245 332.582 245 337V394C245 398.418 241.418 402 237 402H32C27.5817 402 24 398.418 24 394V337Z" fill="white" fill-opacity="0.9" shape-rendering="crispEdges"/>
</g>
<path d="M93.488 359.156C92.92 359.156 92.386 359.044 91.886 358.82C91.386 358.592 90.946 358.28 90.566 357.884C90.19 357.484 89.894 357.02 89.678 356.492C89.466 355.964 89.36 355.4 89.36 354.8C89.36 354.2 89.466 353.636 89.678 353.108C89.894 352.58 90.19 352.118 90.566 351.722C90.946 351.322 91.386 351.01 91.886 350.786C92.386 350.558 92.92 350.444 93.488 350.444C94.168 350.444 94.794 350.602 95.366 350.918C95.938 351.234 96.412 351.654 96.788 352.178L95.894 352.658C95.614 352.29 95.26 351.998 94.832 351.782C94.408 351.562 93.96 351.452 93.488 351.452C93.052 351.452 92.644 351.54 92.264 351.716C91.888 351.892 91.558 352.134 91.274 352.442C90.99 352.75 90.768 353.106 90.608 353.51C90.448 353.914 90.368 354.344 90.368 354.8C90.368 355.26 90.448 355.692 90.608 356.096C90.772 356.5 90.996 356.856 91.28 357.164C91.568 357.472 91.9 357.714 92.276 357.89C92.656 358.062 93.06 358.148 93.488 358.148C93.976 358.148 94.428 358.038 94.844 357.818C95.264 357.594 95.614 357.302 95.894 356.942L96.788 357.428C96.412 357.952 95.938 358.372 95.366 358.688C94.794 359 94.168 359.156 93.488 359.156ZM100.317 359.156C99.765 359.156 99.261 359.014 98.805 358.73C98.353 358.446 97.991 358.066 97.719 357.59C97.451 357.11 97.317 356.58 97.317 356C97.317 355.56 97.395 355.15 97.551 354.77C97.707 354.386 97.921 354.05 98.193 353.762C98.469 353.47 98.789 353.242 99.153 353.078C99.517 352.914 99.905 352.832 100.317 352.832C100.869 352.832 101.371 352.974 101.823 353.258C102.279 353.542 102.641 353.924 102.909 354.404C103.181 354.884 103.317 355.416 103.317 356C103.317 356.436 103.239 356.844 103.083 357.224C102.927 357.604 102.711 357.94 102.435 358.232C102.163 358.52 101.845 358.746 101.481 358.91C101.121 359.074 100.733 359.156 100.317 359.156ZM100.317 358.148C100.693 358.148 101.031 358.05 101.331 357.854C101.635 357.654 101.873 357.392 102.045 357.068C102.221 356.74 102.309 356.384 102.309 356C102.309 355.608 102.219 355.248 102.039 354.92C101.863 354.592 101.625 354.33 101.325 354.134C101.025 353.938 100.689 353.84 100.317 353.84C99.941 353.84 99.603 353.94 99.303 354.14C99.003 354.336 98.765 354.598 98.589 354.926C98.413 355.254 98.325 355.612 98.325 356C98.325 356.4 98.415 356.764 98.595 357.092C98.775 357.416 99.017 357.674 99.321 357.866C99.625 358.054 99.957 358.148 100.317 358.148ZM109.698 355.808V359H108.69V355.832C108.69 355.46 108.612 355.122 108.456 354.818C108.3 354.51 108.088 354.266 107.82 354.086C107.552 353.902 107.25 353.81 106.914 353.81C106.582 353.81 106.286 353.902 106.026 354.086C105.77 354.266 105.568 354.51 105.42 354.818C105.272 355.122 105.198 355.46 105.198 355.832V359H104.19V353H105.198V353.924C105.414 353.584 105.68 353.318 105.996 353.126C106.316 352.93 106.672 352.832 107.064 352.832C107.584 352.832 108.04 352.968 108.432 353.24C108.828 353.512 109.136 353.874 109.356 354.326C109.58 354.774 109.694 355.268 109.698 355.808ZM115.523 353H116.531V359.192C116.531 359.588 116.445 359.956 116.273 360.296C116.105 360.64 115.877 360.938 115.589 361.19C115.301 361.446 114.973 361.644 114.605 361.784C114.237 361.928 113.853 362 113.453 362C113.037 362 112.635 361.906 112.247 361.718C111.859 361.534 111.519 361.286 111.227 360.974C110.939 360.666 110.731 360.32 110.603 359.936L111.527 359.516C111.603 359.792 111.739 360.04 111.935 360.26C112.135 360.484 112.367 360.66 112.631 360.788C112.899 360.92 113.173 360.986 113.453 360.986C113.717 360.986 113.971 360.94 114.215 360.848C114.463 360.756 114.685 360.628 114.881 360.464C115.081 360.304 115.237 360.114 115.349 359.894C115.465 359.678 115.523 359.444 115.523 359.192V357.998C115.319 358.342 115.049 358.622 114.713 358.838C114.381 359.05 113.993 359.156 113.549 359.156C113.125 359.156 112.727 359.074 112.355 358.91C111.983 358.746 111.657 358.52 111.377 358.232C111.097 357.94 110.877 357.604 110.717 357.224C110.557 356.844 110.477 356.436 110.477 356C110.477 355.564 110.557 355.156 110.717 354.776C110.877 354.392 111.097 354.056 111.377 353.768C111.657 353.476 111.983 353.248 112.355 353.084C112.727 352.92 113.125 352.838 113.549 352.838C113.993 352.838 114.381 352.944 114.713 353.156C115.049 353.368 115.319 353.648 115.523 353.996V353ZM113.555 358.178C113.943 358.178 114.279 358.078 114.563 357.878C114.851 357.678 115.073 357.412 115.229 357.08C115.385 356.748 115.463 356.388 115.463 356C115.463 355.6 115.383 355.236 115.223 354.908C115.067 354.576 114.845 354.312 114.557 354.116C114.273 353.916 113.939 353.816 113.555 353.816C113.179 353.816 112.835 353.914 112.523 354.11C112.211 354.306 111.963 354.57 111.779 354.902C111.599 355.23 111.509 355.596 111.509 356C111.509 356.404 111.601 356.772 111.785 357.104C111.973 357.432 112.221 357.694 112.529 357.89C112.841 358.082 113.183 358.178 113.555 358.178ZM121.406 353.996C121.306 353.94 121.198 353.896 121.082 353.864C120.966 353.832 120.84 353.816 120.704 353.816C120.372 353.816 120.076 353.906 119.816 354.086C119.56 354.266 119.358 354.51 119.21 354.818C119.062 355.126 118.988 355.466 118.988 355.838V359H117.974V353H118.982V353.924C119.198 353.588 119.466 353.324 119.786 353.132C120.106 352.936 120.46 352.838 120.848 352.838C120.98 352.838 121.106 352.844 121.226 352.856C121.346 352.868 121.46 352.892 121.568 352.928L121.406 353.996ZM126.93 353H127.938V359H126.924L126.888 357.986C126.7 358.334 126.44 358.616 126.108 358.832C125.78 359.048 125.39 359.156 124.938 359.156C124.494 359.156 124.08 359.074 123.696 358.91C123.312 358.742 122.972 358.512 122.676 358.22C122.384 357.924 122.156 357.584 121.992 357.2C121.828 356.816 121.746 356.402 121.746 355.958C121.746 355.53 121.826 355.126 121.986 354.746C122.146 354.366 122.368 354.034 122.652 353.75C122.94 353.462 123.272 353.238 123.648 353.078C124.024 352.914 124.426 352.832 124.854 352.832C125.33 352.832 125.746 352.944 126.102 353.168C126.462 353.388 126.75 353.674 126.966 354.026L126.93 353ZM124.962 358.178C125.362 358.178 125.706 358.078 125.994 357.878C126.282 357.678 126.5 357.41 126.648 357.074C126.8 356.738 126.868 356.366 126.852 355.958C126.836 355.558 126.742 355.196 126.57 354.872C126.398 354.548 126.166 354.292 125.874 354.104C125.582 353.912 125.242 353.816 124.854 353.816C124.458 353.816 124.098 353.916 123.774 354.116C123.45 354.316 123.196 354.584 123.012 354.92C122.832 355.256 122.75 355.63 122.766 356.042C122.786 356.438 122.898 356.798 123.102 357.122C123.306 357.446 123.57 357.704 123.894 357.896C124.222 358.084 124.578 358.178 124.962 358.178ZM132.484 354.008H131.122L131.116 359H130.108L130.114 354.008H129.082V353H130.114L130.108 351.116H131.116L131.122 353H132.484V354.008ZM135.391 359.114C135.067 359.102 134.751 359.042 134.443 358.934C134.139 358.822 133.871 358.672 133.639 358.484C133.411 358.292 133.245 358.072 133.141 357.824L134.005 357.452C134.065 357.588 134.173 357.716 134.329 357.836C134.485 357.956 134.665 358.052 134.869 358.124C135.073 358.196 135.279 358.232 135.487 358.232C135.707 358.232 135.913 358.198 136.105 358.13C136.297 358.062 136.453 357.962 136.573 357.83C136.697 357.694 136.759 357.532 136.759 357.344C136.759 357.144 136.691 356.988 136.555 356.876C136.423 356.76 136.255 356.67 136.051 356.606C135.851 356.538 135.647 356.474 135.439 356.414C135.027 356.31 134.659 356.186 134.335 356.042C134.011 355.894 133.755 355.708 133.567 355.484C133.383 355.256 133.291 354.966 133.291 354.614C133.291 354.242 133.393 353.92 133.597 353.648C133.805 353.376 134.077 353.166 134.413 353.018C134.749 352.87 135.109 352.796 135.493 352.796C135.977 352.796 136.419 352.9 136.819 353.108C137.219 353.316 137.517 353.598 137.713 353.954L136.903 354.428C136.835 354.284 136.731 354.158 136.591 354.05C136.451 353.938 136.291 353.85 136.111 353.786C135.931 353.722 135.747 353.688 135.559 353.684C135.327 353.676 135.109 353.706 134.905 353.774C134.705 353.842 134.543 353.946 134.419 354.086C134.299 354.222 134.239 354.392 134.239 354.596C134.239 354.796 134.303 354.948 134.431 355.052C134.563 355.156 134.733 355.24 134.941 355.304C135.153 355.364 135.383 355.434 135.631 355.514C135.995 355.63 136.335 355.764 136.651 355.916C136.967 356.068 137.221 356.258 137.413 356.486C137.609 356.714 137.705 356.996 137.701 357.332C137.701 357.7 137.591 358.022 137.371 358.298C137.151 358.57 136.865 358.778 136.513 358.922C136.165 359.066 135.791 359.13 135.391 359.114ZM138.678 356.48V350.6H139.548V356.48H138.678ZM139.116 359.156C138.96 359.156 138.828 359.102 138.72 358.994C138.612 358.886 138.558 358.754 138.558 358.598C138.558 358.446 138.612 358.318 138.72 358.214C138.828 358.106 138.96 358.052 139.116 358.052C139.264 358.052 139.39 358.106 139.494 358.214C139.602 358.318 139.656 358.446 139.656 358.598C139.656 358.754 139.602 358.886 139.494 358.994C139.39 359.102 139.264 359.156 139.116 359.156Z" fill="#F37D61"/>
<path d="M95.798 370.6L92.978 375.196V379H92.186V375.196L89.36 370.6H90.29L92.582 374.332L94.868 370.6H95.798ZM98.5827 379.156C98.0387 379.156 97.5367 379.014 97.0767 378.73C96.6207 378.446 96.2567 378.064 95.9847 377.584C95.7167 377.1 95.5827 376.572 95.5827 376C95.5827 375.424 95.7167 374.894 95.9847 374.41C96.2567 373.926 96.6207 373.542 97.0767 373.258C97.5367 372.974 98.0387 372.832 98.5827 372.832C99.1267 372.832 99.6267 372.974 100.083 373.258C100.543 373.542 100.907 373.926 101.175 374.41C101.447 374.894 101.583 375.424 101.583 376C101.583 376.572 101.447 377.1 101.175 377.584C100.907 378.064 100.543 378.446 100.083 378.73C99.6267 379.014 99.1267 379.156 98.5827 379.156ZM98.5827 378.364C98.9907 378.364 99.3627 378.256 99.6987 378.04C100.035 377.824 100.301 377.536 100.497 377.176C100.693 376.812 100.791 376.42 100.791 376C100.791 375.576 100.693 375.182 100.497 374.818C100.301 374.454 100.033 374.164 99.6927 373.948C99.3567 373.732 98.9867 373.624 98.5827 373.624C98.1747 373.624 97.8007 373.732 97.4607 373.948C97.1247 374.164 96.8587 374.454 96.6627 374.818C96.4707 375.182 96.3747 375.576 96.3747 376C96.3747 376.432 96.4747 376.83 96.6747 377.194C96.8747 377.554 97.1427 377.84 97.4787 378.052C97.8187 378.26 98.1867 378.364 98.5827 378.364ZM103.344 373V376.204C103.344 376.6 103.428 376.966 103.596 377.302C103.764 377.634 103.994 377.898 104.286 378.094C104.578 378.29 104.898 378.388 105.246 378.388C105.594 378.388 105.91 378.29 106.194 378.094C106.478 377.898 106.7 377.634 106.86 377.302C107.024 376.966 107.106 376.6 107.106 376.204V373H107.898V379H107.106V377.968C106.874 378.344 106.59 378.638 106.254 378.85C105.918 379.058 105.55 379.162 105.15 379.162C104.654 379.162 104.21 379.03 103.818 378.766C103.426 378.498 103.118 378.14 102.894 377.692C102.67 377.24 102.556 376.752 102.552 376.228V373H103.344ZM112.673 373.762C112.453 373.658 112.227 373.606 111.995 373.606C111.647 373.606 111.331 373.704 111.047 373.9C110.763 374.096 110.539 374.362 110.375 374.698C110.215 375.03 110.135 375.394 110.135 375.79V379H109.337V373.006H110.129V374.02C110.361 373.644 110.645 373.354 110.981 373.15C111.321 372.942 111.693 372.838 112.097 372.838C112.373 372.838 112.607 372.87 112.799 372.934L112.673 373.762ZM120.389 370.6L123.449 379H122.603L121.943 377.176H117.845L117.179 379H116.339L119.393 370.6H120.389ZM121.649 376.384L119.891 371.56L118.133 376.384H121.649ZM129.816 379H129.024V377.854C128.808 378.258 128.514 378.576 128.142 378.808C127.77 379.04 127.34 379.156 126.852 379.156C126.28 379.156 125.752 379.014 125.268 378.73C124.788 378.446 124.406 378.064 124.122 377.584C123.838 377.1 123.696 376.572 123.696 376C123.696 375.428 123.838 374.9 124.122 374.416C124.406 373.932 124.788 373.548 125.268 373.264C125.752 372.98 126.28 372.838 126.852 372.838C127.34 372.838 127.77 372.954 128.142 373.186C128.514 373.418 128.808 373.736 129.024 374.14V370H129.816V379ZM126.858 378.388C127.282 378.388 127.652 378.282 127.968 378.07C128.288 377.858 128.532 377.57 128.7 377.206C128.872 376.842 128.958 376.44 128.958 376C128.958 375.552 128.872 375.146 128.7 374.782C128.528 374.418 128.282 374.132 127.962 373.924C127.646 373.712 127.278 373.606 126.858 373.606C126.434 373.606 126.04 373.714 125.676 373.93C125.316 374.146 125.03 374.438 124.818 374.806C124.606 375.17 124.5 375.568 124.5 376C124.5 376.436 124.608 376.838 124.824 377.206C125.04 377.57 125.328 377.858 125.688 378.07C126.052 378.282 126.442 378.388 126.858 378.388ZM131.981 373V373.96C132.205 373.596 132.443 373.324 132.695 373.144C132.947 372.964 133.257 372.874 133.625 372.874C134.117 372.874 134.539 372.998 134.891 373.246C135.247 373.494 135.533 373.844 135.749 374.296C135.965 373.84 136.251 373.49 136.607 373.246C136.967 372.998 137.389 372.874 137.873 372.874C138.361 372.874 138.789 373.004 139.157 373.264C139.529 373.52 139.813 373.866 140.009 374.302C140.209 374.734 140.309 375.21 140.309 375.73V379H139.517V375.73C139.517 375.346 139.451 374.998 139.319 374.686C139.191 374.374 139.001 374.126 138.749 373.942C138.501 373.758 138.209 373.666 137.873 373.666C137.533 373.666 137.231 373.758 136.967 373.942C136.707 374.126 136.505 374.376 136.361 374.692C136.217 375.004 136.145 375.35 136.145 375.73V379H135.353V375.73C135.353 375.35 135.281 375.004 135.137 374.692C134.993 374.376 134.789 374.126 134.525 373.942C134.265 373.758 133.965 373.666 133.625 373.666C133.313 373.666 133.031 373.766 132.779 373.966C132.527 374.162 132.331 374.426 132.191 374.758C132.051 375.086 131.981 375.438 131.981 375.814V379H131.189V373H131.981ZM142.043 371.98C141.919 371.98 141.811 371.934 141.719 371.842C141.631 371.75 141.587 371.644 141.587 371.524C141.587 371.4 141.631 371.292 141.719 371.2C141.811 371.108 141.919 371.062 142.043 371.062C142.167 371.062 142.275 371.108 142.367 371.2C142.459 371.292 142.505 371.4 142.505 371.524C142.505 371.644 142.459 371.75 142.367 371.842C142.275 371.934 142.167 371.98 142.043 371.98ZM142.409 373V379H141.617V373H142.409ZM145.923 379.114C145.583 379.114 145.249 379.06 144.921 378.952C144.597 378.84 144.313 378.686 144.069 378.49C143.825 378.294 143.655 378.072 143.559 377.824L144.249 377.53C144.313 377.69 144.433 377.838 144.609 377.974C144.785 378.106 144.989 378.212 145.221 378.292C145.453 378.372 145.681 378.412 145.905 378.412C146.157 378.412 146.393 378.37 146.613 378.286C146.833 378.198 147.009 378.076 147.141 377.92C147.277 377.764 147.345 377.584 147.345 377.38C147.345 377.172 147.277 377.004 147.141 376.876C147.005 376.744 146.847 376.644 146.667 376.576C146.487 376.508 146.221 376.424 145.869 376.324C145.385 376.192 144.991 376.056 144.687 375.916C144.383 375.776 144.145 375.598 143.973 375.382C143.801 375.166 143.715 374.894 143.715 374.566C143.715 374.214 143.815 373.904 144.015 373.636C144.219 373.368 144.489 373.162 144.825 373.018C145.161 372.87 145.521 372.796 145.905 372.796C146.393 372.796 146.837 372.902 147.237 373.114C147.641 373.326 147.933 373.608 148.113 373.96L147.465 374.338C147.357 374.094 147.153 373.894 146.853 373.738C146.557 373.582 146.245 373.504 145.917 373.504C145.657 373.504 145.415 373.546 145.191 373.63C144.971 373.714 144.795 373.836 144.663 373.996C144.535 374.152 144.471 374.336 144.471 374.548C144.471 374.736 144.519 374.886 144.615 374.998C144.711 375.11 144.835 375.2 144.987 375.268C145.139 375.332 145.365 375.408 145.665 375.496L146.001 375.598C146.441 375.742 146.807 375.886 147.099 376.03C147.395 376.17 147.635 376.35 147.819 376.57C148.007 376.79 148.099 377.058 148.095 377.374C148.095 377.714 147.993 378.016 147.789 378.28C147.589 378.544 147.323 378.75 146.991 378.898C146.659 379.042 146.303 379.114 145.923 379.114ZM151.197 379.114C150.857 379.114 150.523 379.06 150.195 378.952C149.871 378.84 149.587 378.686 149.343 378.49C149.099 378.294 148.929 378.072 148.833 377.824L149.523 377.53C149.587 377.69 149.707 377.838 149.883 377.974C150.059 378.106 150.263 378.212 150.495 378.292C150.727 378.372 150.955 378.412 151.179 378.412C151.431 378.412 151.667 378.37 151.887 378.286C152.107 378.198 152.283 378.076 152.415 377.92C152.551 377.764 152.619 377.584 152.619 377.38C152.619 377.172 152.551 377.004 152.415 376.876C152.279 376.744 152.121 376.644 151.941 376.576C151.761 376.508 151.495 376.424 151.143 376.324C150.659 376.192 150.265 376.056 149.961 375.916C149.657 375.776 149.419 375.598 149.247 375.382C149.075 375.166 148.989 374.894 148.989 374.566C148.989 374.214 149.089 373.904 149.289 373.636C149.493 373.368 149.763 373.162 150.099 373.018C150.435 372.87 150.795 372.796 151.179 372.796C151.667 372.796 152.111 372.902 152.511 373.114C152.915 373.326 153.207 373.608 153.387 373.96L152.739 374.338C152.631 374.094 152.427 373.894 152.127 373.738C151.831 373.582 151.519 373.504 151.191 373.504C150.931 373.504 150.689 373.546 150.465 373.63C150.245 373.714 150.069 373.836 149.937 373.996C149.809 374.152 149.745 374.336 149.745 374.548C149.745 374.736 149.793 374.886 149.889 374.998C149.985 375.11 150.109 375.2 150.261 375.268C150.413 375.332 150.639 375.408 150.939 375.496L151.275 375.598C151.715 375.742 152.081 375.886 152.373 376.03C152.669 376.17 152.909 376.35 153.093 376.57C153.281 376.79 153.373 377.058 153.369 377.374C153.369 377.714 153.267 378.016 153.063 378.28C152.863 378.544 152.597 378.75 152.265 378.898C151.933 379.042 151.577 379.114 151.197 379.114ZM154.864 371.98C154.74 371.98 154.632 371.934 154.54 371.842C154.452 371.75 154.408 371.644 154.408 371.524C154.408 371.4 154.452 371.292 154.54 371.2C154.632 371.108 154.74 371.062 154.864 371.062C154.988 371.062 155.096 371.108 155.188 371.2C155.28 371.292 155.326 371.4 155.326 371.524C155.326 371.644 155.28 371.75 155.188 371.842C155.096 371.934 154.988 371.98 154.864 371.98ZM155.229 373V379H154.438V373H155.229ZM159.415 379.156C158.871 379.156 158.369 379.014 157.909 378.73C157.453 378.446 157.089 378.064 156.817 377.584C156.549 377.1 156.415 376.572 156.415 376C156.415 375.424 156.549 374.894 156.817 374.41C157.089 373.926 157.453 373.542 157.909 373.258C158.369 372.974 158.871 372.832 159.415 372.832C159.959 372.832 160.459 372.974 160.915 373.258C161.375 373.542 161.739 373.926 162.007 374.41C162.279 374.894 162.415 375.424 162.415 376C162.415 376.572 162.279 377.1 162.007 377.584C161.739 378.064 161.375 378.446 160.915 378.73C160.459 379.014 159.959 379.156 159.415 379.156ZM159.415 378.364C159.823 378.364 160.195 378.256 160.531 378.04C160.867 377.824 161.133 377.536 161.329 377.176C161.525 376.812 161.623 376.42 161.623 376C161.623 375.576 161.525 375.182 161.329 374.818C161.133 374.454 160.865 374.164 160.525 373.948C160.189 373.732 159.819 373.624 159.415 373.624C159.007 373.624 158.633 373.732 158.293 373.948C157.957 374.164 157.691 374.454 157.495 374.818C157.303 375.182 157.207 375.576 157.207 376C157.207 376.432 157.307 376.83 157.507 377.194C157.707 377.554 157.975 377.84 158.311 378.052C158.651 378.26 159.019 378.364 159.415 378.364ZM167.865 379V375.784C167.865 375.388 167.781 375.024 167.613 374.692C167.445 374.356 167.215 374.09 166.923 373.894C166.631 373.698 166.311 373.6 165.963 373.6C165.619 373.6 165.305 373.698 165.021 373.894C164.737 374.09 164.513 374.356 164.349 374.692C164.185 375.024 164.103 375.388 164.103 375.784V379H163.311V373H164.103V374.02C164.335 373.644 164.619 373.352 164.955 373.144C165.291 372.936 165.659 372.832 166.059 372.832C166.555 372.832 166.999 372.966 167.391 373.234C167.787 373.498 168.095 373.854 168.315 374.302C168.535 374.75 168.649 375.236 168.657 375.76V379H167.865ZM177.899 377.902C177.619 378.29 177.269 378.596 176.849 378.82C176.433 379.044 175.985 379.156 175.505 379.156C174.961 379.156 174.459 379.014 173.999 378.73C173.543 378.446 173.179 378.064 172.907 377.584C172.639 377.1 172.505 376.572 172.505 376C172.505 375.424 172.639 374.894 172.907 374.41C173.179 373.926 173.543 373.542 173.999 373.258C174.459 372.974 174.961 372.832 175.505 372.832C175.985 372.832 176.435 372.944 176.855 373.168C177.275 373.392 177.623 373.7 177.899 374.092L177.191 374.47C176.979 374.202 176.723 373.994 176.423 373.846C176.127 373.698 175.821 373.624 175.505 373.624C175.097 373.624 174.723 373.732 174.383 373.948C174.047 374.164 173.781 374.454 173.585 374.818C173.393 375.182 173.297 375.576 173.297 376C173.297 376.424 173.395 376.818 173.591 377.182C173.791 377.542 174.059 377.83 174.395 378.046C174.735 378.258 175.105 378.364 175.505 378.364C175.833 378.364 176.145 378.288 176.441 378.136C176.741 377.98 176.991 377.774 177.191 377.518L177.899 377.902ZM181.528 379.156C180.984 379.156 180.482 379.014 180.022 378.73C179.566 378.446 179.202 378.064 178.93 377.584C178.662 377.1 178.528 376.572 178.528 376C178.528 375.424 178.662 374.894 178.93 374.41C179.202 373.926 179.566 373.542 180.022 373.258C180.482 372.974 180.984 372.832 181.528 372.832C182.072 372.832 182.572 372.974 183.028 373.258C183.488 373.542 183.852 373.926 184.12 374.41C184.392 374.894 184.528 375.424 184.528 376C184.528 376.572 184.392 377.1 184.12 377.584C183.852 378.064 183.488 378.446 183.028 378.73C182.572 379.014 182.072 379.156 181.528 379.156ZM181.528 378.364C181.936 378.364 182.308 378.256 182.644 378.04C182.98 377.824 183.246 377.536 183.442 377.176C183.638 376.812 183.736 376.42 183.736 376C183.736 375.576 183.638 375.182 183.442 374.818C183.246 374.454 182.978 374.164 182.638 373.948C182.302 373.732 181.932 373.624 181.528 373.624C181.12 373.624 180.746 373.732 180.406 373.948C180.07 374.164 179.804 374.454 179.608 374.818C179.416 375.182 179.32 375.576 179.32 376C179.32 376.432 179.42 376.83 179.62 377.194C179.82 377.554 180.088 377.84 180.424 378.052C180.764 378.26 181.132 378.364 181.528 378.364ZM186.18 373V373.96C186.404 373.596 186.642 373.324 186.894 373.144C187.146 372.964 187.456 372.874 187.824 372.874C188.316 372.874 188.738 372.998 189.09 373.246C189.446 373.494 189.732 373.844 189.948 374.296C190.164 373.84 190.45 373.49 190.806 373.246C191.166 372.998 191.588 372.874 192.072 372.874C192.56 372.874 192.988 373.004 193.356 373.264C193.728 373.52 194.012 373.866 194.208 374.302C194.408 374.734 194.508 375.21 194.508 375.73V379H193.716V375.73C193.716 375.346 193.65 374.998 193.518 374.686C193.39 374.374 193.2 374.126 192.948 373.942C192.7 373.758 192.408 373.666 192.072 373.666C191.732 373.666 191.43 373.758 191.166 373.942C190.906 374.126 190.704 374.376 190.56 374.692C190.416 375.004 190.344 375.35 190.344 375.73V379H189.552V375.73C189.552 375.35 189.48 375.004 189.336 374.692C189.192 374.376 188.988 374.126 188.724 373.942C188.464 373.758 188.164 373.666 187.824 373.666C187.512 373.666 187.23 373.766 186.978 373.966C186.726 374.162 186.53 374.426 186.39 374.758C186.25 375.086 186.18 375.438 186.18 375.814V379H185.388V373H186.18ZM195.786 373H196.578V374.152C196.794 373.748 197.086 373.43 197.454 373.198C197.826 372.962 198.256 372.844 198.744 372.844C199.316 372.844 199.844 372.986 200.328 373.27C200.812 373.554 201.194 373.938 201.474 374.422C201.758 374.902 201.9 375.428 201.9 376C201.9 376.576 201.758 377.106 201.474 377.59C201.194 378.074 200.812 378.458 200.328 378.742C199.844 379.026 199.316 379.168 198.744 379.168C198.256 379.168 197.826 379.052 197.454 378.82C197.086 378.584 196.794 378.264 196.578 377.86V382H195.786V373ZM198.738 373.612C198.322 373.612 197.954 373.718 197.634 373.93C197.318 374.142 197.074 374.43 196.902 374.794C196.73 375.154 196.644 375.556 196.644 376C196.644 376.44 196.728 376.842 196.896 377.206C197.068 377.57 197.312 377.86 197.628 378.076C197.948 378.288 198.318 378.394 198.738 378.394C199.158 378.394 199.548 378.288 199.908 378.076C200.272 377.864 200.56 377.576 200.772 377.212C200.988 376.844 201.096 376.44 201.096 376C201.096 375.572 200.99 375.176 200.778 374.812C200.57 374.444 200.284 374.152 199.92 373.936C199.56 373.72 199.166 373.612 198.738 373.612ZM203.155 370H203.947V378.994H203.155V370ZM208.153 379.156C207.609 379.156 207.107 379.014 206.647 378.73C206.191 378.446 205.827 378.064 205.555 377.584C205.287 377.1 205.153 376.572 205.153 376C205.153 375.424 205.287 374.894 205.555 374.41C205.827 373.926 206.191 373.542 206.647 373.258C207.107 372.974 207.609 372.832 208.153 372.832C208.717 372.832 209.225 372.976 209.677 373.264C210.133 373.548 210.489 373.94 210.745 374.44C211.005 374.94 211.135 375.502 211.135 376.126L211.129 376.306H205.987C206.031 376.694 206.153 377.044 206.353 377.356C206.553 377.668 206.809 377.914 207.121 378.094C207.437 378.274 207.781 378.364 208.153 378.364C208.557 378.364 208.925 378.258 209.257 378.046C209.589 377.834 209.859 377.538 210.067 377.158L210.865 377.344C210.705 377.7 210.487 378.016 210.211 378.292C209.939 378.564 209.625 378.776 209.269 378.928C208.917 379.08 208.545 379.156 208.153 379.156ZM210.331 375.658C210.303 375.282 210.187 374.934 209.983 374.614C209.783 374.29 209.521 374.032 209.197 373.84C208.873 373.648 208.525 373.552 208.153 373.552C207.777 373.552 207.429 373.646 207.109 373.834C206.793 374.018 206.533 374.272 206.329 374.596C206.129 374.916 206.009 375.27 205.969 375.658H210.331ZM213.619 374.086L213.607 379H212.815L212.827 374.086H211.723V373.294H212.827L212.815 371.116H213.607L213.619 373.294H215.071V374.086H213.619ZM218.606 379.156C218.062 379.156 217.56 379.014 217.1 378.73C216.644 378.446 216.28 378.064 216.008 377.584C215.74 377.1 215.606 376.572 215.606 376C215.606 375.424 215.74 374.894 216.008 374.41C216.28 373.926 216.644 373.542 217.1 373.258C217.56 372.974 218.062 372.832 218.606 372.832C219.17 372.832 219.678 372.976 220.13 373.264C220.586 373.548 220.942 373.94 221.198 374.44C221.458 374.94 221.588 375.502 221.588 376.126L221.582 376.306H216.44C216.484 376.694 216.606 377.044 216.806 377.356C217.006 377.668 217.262 377.914 217.574 378.094C217.89 378.274 218.234 378.364 218.606 378.364C219.01 378.364 219.378 378.258 219.71 378.046C220.042 377.834 220.312 377.538 220.52 377.158L221.318 377.344C221.158 377.7 220.94 378.016 220.664 378.292C220.392 378.564 220.078 378.776 219.722 378.928C219.37 379.08 218.998 379.156 218.606 379.156ZM220.784 375.658C220.756 375.282 220.64 374.934 220.436 374.614C220.236 374.29 219.974 374.032 219.65 373.84C219.326 373.648 218.978 373.552 218.606 373.552C218.23 373.552 217.882 373.646 217.562 373.834C217.246 374.018 216.986 374.272 216.782 374.596C216.582 374.916 216.462 375.27 216.422 375.658H220.784ZM228.324 379H227.532V377.854C227.316 378.258 227.022 378.576 226.65 378.808C226.278 379.04 225.848 379.156 225.36 379.156C224.788 379.156 224.26 379.014 223.776 378.73C223.296 378.446 222.914 378.064 222.63 377.584C222.346 377.1 222.204 376.572 222.204 376C222.204 375.428 222.346 374.9 222.63 374.416C222.914 373.932 223.296 373.548 223.776 373.264C224.26 372.98 224.788 372.838 225.36 372.838C225.848 372.838 226.278 372.954 226.65 373.186C227.022 373.418 227.316 373.736 227.532 374.14V370H228.324V379ZM225.366 378.388C225.79 378.388 226.16 378.282 226.476 378.07C226.796 377.858 227.04 377.57 227.208 377.206C227.38 376.842 227.466 376.44 227.466 376C227.466 375.552 227.38 375.146 227.208 374.782C227.036 374.418 226.79 374.132 226.47 373.924C226.154 373.712 225.786 373.606 225.366 373.606C224.942 373.606 224.548 373.714 224.184 373.93C223.824 374.146 223.538 374.438 223.326 374.806C223.114 375.17 223.008 375.568 223.008 376C223.008 376.436 223.116 376.838 223.332 377.206C223.548 377.57 223.836 377.858 224.196 378.07C224.56 378.282 224.95 378.388 225.366 378.388Z" fill="#2F374B"/>
<rect x="37" y="345" width="40" height="40" rx="10" fill="#F37D61"/>
<path d="M66 369C66 369.53 65.7893 370.039 65.4142 370.414C65.0391 370.789 64.5304 371 64 371H52L48 375V359C48 358.47 48.2107 357.961 48.5858 357.586C48.9609 357.211 49.4696 357 50 357H64C64.5304 357 65.0391 357.211 65.4142 357.586C65.7893 357.961 66 358.47 66 359V369Z" fill="white"/>
<defs>
<filter id="filter0_b_8_130" x="345" y="458" width="340" height="140" filterUnits="userSpaceOnUse" color-interpolation-filters="sRGB">
<feFlood flood-opacity="0" result="BackgroundImageFix"/>
<feGaussianBlur in="BackgroundImageFix" stdDeviation="10"/>
<feComposite in2="SourceAlpha" operator="in" result="effect1_backgroundBlur_8_130"/>
<feBlend mode="normal" in="SourceGraphic" in2="effect1_backgroundBlur_8_130" result="shape"/>
</filter>
<filter id="filter1_d_8_130" x="0" y="309" width="269" height="121" filterUnits="userSpaceOnUse" color-interpolation-filters="sRGB">
<feFlood flood-opacity="0" result="BackgroundImageFix"/>
<feColorMatrix in="SourceAlpha" type="matrix" values="0 0 0 0 0 0 0 0 0 0 0 0 0 0 0 0 0 0 127 0" result="hardAlpha"/>
<feOffset dy="4"/>
<feGaussianBlur stdDeviation="12"/>
<feComposite in2="hardAlpha" operator="out"/>
<feColorMatrix type="matrix" values="0 0 0 0 0 0 0 0 0 0 0 0 0 0 0 0 0 0 0.08 0"/>
<feBlend mode="normal" in2="BackgroundImageFix" result="effect1_dropShadow_8_130"/>
<feBlend mode="normal" in="SourceGraphic" in2="effect1_dropShadow_8_130" result="shape"/>
</filter>
<clipPath id="clip0_8_130">
<rect width="429.592" height="429.592" fill="white" transform="translate(57 112.09) rotate(-15)"/>
</clipPath>
<clipPath id="clip1_8_130">
<rect width="27.5" height="27.5" fill="white" transform="translate(404.25 514.25)"/>
</clipPath>
</defs>
</svg>
