<svg width="24" height="24" viewBox="0 0 24 24" fill="none" xmlns="http://www.w3.org/2000/svg">
<path d="M0.0625 23.9375V0.0625H23.9375V23.9375H0.0625Z" stroke="white" stroke-width="0.125"/>
<path d="M8.69946 5.5311L7.98193 3.79883" stroke="white" stroke-width="2" stroke-linecap="round" stroke-linejoin="round"/>
<path d="M4.03159 10.2L2.29932 9.48242" stroke="white" stroke-width="2" stroke-linecap="round" stroke-linejoin="round"/>
<path d="M19.9685 10.2L21.7008 9.48242" stroke="white" stroke-width="2" stroke-linecap="round" stroke-linejoin="round"/>
<path d="M15.3005 5.5311L16.0181 3.79883" stroke="white" stroke-width="2" stroke-linecap="round" stroke-linejoin="round"/>
<path d="M22.5 15H1.5" stroke="white" stroke-width="2" stroke-linecap="round" stroke-linejoin="round"/>
<path d="M19.5 18.75H4.5" stroke="white" stroke-width="2" stroke-linecap="round" stroke-linejoin="round"/>
<path d="M6.57722 15.0005C6.34705 14.1655 6.31285 13.2885 6.47728 12.4381C6.6417 11.5876 7.00032 10.7866 7.52517 10.0976C8.05002 9.40847 8.72692 8.84991 9.50311 8.46541C10.2793 8.08091 11.1338 7.88086 12 7.88086C12.8662 7.88086 13.7207 8.08091 14.4969 8.4654C15.2731 8.8499 15.95 9.40847 16.4748 10.0976C16.9997 10.7866 17.3583 11.5876 17.5227 12.4381C17.6872 13.2885 17.653 14.1655 17.4228 15.0005" fill="white"/>
<path d="M6.57722 15.0005C6.34705 14.1655 6.31285 13.2885 6.47728 12.4381C6.6417 11.5876 7.00032 10.7866 7.52517 10.0976C8.05002 9.40847 8.72692 8.84991 9.50311 8.46541C10.2793 8.08091 11.1338 7.88086 12 7.88086C12.8662 7.88086 13.7207 8.08091 14.4969 8.4654C15.2731 8.8499 15.95 9.40847 16.4748 10.0976C16.9997 10.7866 17.3583 11.5876 17.5227 12.4381C17.6872 13.2885 17.653 14.1655 17.4228 15.0005" stroke="white" stroke-width="2" stroke-linecap="round" stroke-linejoin="round"/>
</svg>
