<svg width="215" height="368" viewBox="0 0 215 368" fill="none" xmlns="http://www.w3.org/2000/svg">
<path d="M85.232 369.883C85.232 369.883 82.8354 318.977 99.5612 294.473C115.171 271.604 138.322 275.276 158.072 256.15C190.082 225.151 213 154.78 213 154.78V-15.8193C213 -15.8193 168.348 -100.933 124.637 -91.229C95.9383 -84.8576 83.6027 -64.8631 69.7088 -38.0714C49.1993 1.47739 75.2094 32.3627 69.7088 76.8975C64.2716 120.92 57.5262 145.462 42.2447 186.922C21.3944 243.49 -19.7238 262.42 -31.7891 321.67C-39.9654 361.822 -63.7701 402.551 -31.7891 426.749C-8.43875 444.417 18.8943 444.417 42.2447 426.749C74.2257 402.551 31.5397 361.178 42.2447 321.67C53.5685 279.878 76.3733 263.867 99.5612 227.717C126.042 186.432 154.896 170.907 170.013 123.874C186.648 72.116 196.013 31.6157 170.013 -15.8193C157.312 -38.9904 150.2 -68.1636 124.637 -65.2683C92.6829 -61.6491 126.301 -13.2357 124.637 20.0312C121.342 85.9028 140.659 136.555 99.5612 186.922C86.5354 202.885 60.1561 221.536 60.1561 221.536L20.751 294.473L2.83959 385.954" stroke="white" stroke-opacity="0.5" stroke-width="4"/>
</svg>
