<svg width="274" height="266" viewBox="0 0 274 266" fill="none" xmlns="http://www.w3.org/2000/svg">
<path d="M139.826 277.22C139.826 277.22 137.347 246.887 154.649 232.286C170.798 218.659 194.747 220.847 215.178 209.45C248.291 190.979 272 149.047 272 149.047V47.3934C272 47.3934 225.809 -3.32307 180.59 2.45939C150.902 6.2559 138.141 18.1699 123.768 34.1342C102.551 57.6999 129.458 76.1033 123.768 102.64C118.143 128.871 111.165 143.495 95.3566 168.199C73.7873 201.906 31.2512 213.187 18.7699 248.491C10.3117 272.416 -14.3139 296.685 18.7699 311.104C42.9254 321.632 71.201 321.632 95.3566 311.104C128.44 296.685 84.2825 272.033 95.3566 248.491C107.071 223.589 130.662 214.049 154.649 192.508C182.044 167.908 211.892 158.657 227.53 130.632C244.74 99.7909 254.428 75.6582 227.53 47.3934C214.391 33.5865 207.034 16.2033 180.59 17.9285C147.534 20.085 182.311 48.9329 180.59 68.7554C177.182 108.006 197.165 138.188 154.649 168.199C141.175 177.712 113.886 188.825 113.886 188.825L73.1217 232.286L54.5927 286.796" stroke="white" stroke-opacity="0.5" stroke-width="4"/>
</svg>
