<svg width="265" height="368" viewBox="0 0 265 368" fill="none" xmlns="http://www.w3.org/2000/svg">
<path d="M135.232 369.883C135.232 369.883 132.835 318.977 149.561 294.473C165.171 271.604 188.322 275.276 208.072 256.15C240.082 225.151 263 154.78 263 154.78V-15.8193C263 -15.8193 218.348 -100.933 174.637 -91.229C145.938 -84.8576 133.603 -64.8631 119.709 -38.0714C99.1993 1.47739 125.209 32.3627 119.709 76.8975C114.272 120.92 107.526 145.462 92.2447 186.922C71.3944 243.49 30.2762 262.42 18.2109 321.67C10.0346 361.822 -13.7701 402.551 18.2109 426.749C41.5613 444.417 68.8943 444.417 92.2447 426.749C124.226 402.551 81.5397 361.178 92.2447 321.67C103.569 279.878 126.373 263.867 149.561 227.717C176.042 186.432 204.896 170.907 220.013 123.874C236.648 72.116 246.013 31.6157 220.013 -15.8193C207.312 -38.9904 200.2 -68.1636 174.637 -65.2683C142.683 -61.6491 176.301 -13.2357 174.637 20.0312C171.342 85.9028 190.659 136.555 149.561 186.922C136.535 202.885 110.156 221.536 110.156 221.536L70.751 294.473L52.8396 385.954" stroke="white" stroke-opacity="0.5" stroke-width="4"/>
</svg>
