<svg width="687" height="617" viewBox="0 0 687 617" fill="none" xmlns="http://www.w3.org/2000/svg">
<rect x="176.204" y="10.502" width="491.066" height="495.343" rx="20" transform="rotate(15 176.204 10.502)" fill="#FED081"/>
<g clip-path="url(#clip0_2_631)">
<rect x="135.001" y="47.0957" width="537.398" height="537.398" rx="29.2064" fill="#5FAEC4"/>
<path d="M443.326 607.259C443.326 607.259 440.591 547.453 459.681 518.665C477.499 491.797 503.923 496.111 526.465 473.641C563.001 437.222 589.16 354.547 589.16 354.547V154.12C589.16 154.12 538.195 54.1238 488.303 65.5249C455.546 73.0103 441.466 96.5008 425.608 127.977C402.198 174.44 431.886 210.726 425.608 263.047C419.402 314.767 411.703 343.6 394.26 392.308C370.462 458.767 323.53 481.008 309.758 550.617C300.426 597.789 273.255 645.639 309.758 674.068C336.41 694.825 367.608 694.825 394.26 674.068C430.763 645.639 382.042 597.032 394.26 550.617C407.185 501.518 433.215 482.708 459.681 440.237C489.907 391.734 522.84 373.493 540.095 318.237C559.083 257.43 569.772 209.848 540.095 154.12C525.598 126.897 517.48 92.6232 488.303 96.0247C451.831 100.277 490.202 157.155 488.303 196.238C484.542 273.627 506.591 333.135 459.681 392.308C444.814 411.063 414.704 432.975 414.704 432.975L369.727 518.665L349.283 626.14" stroke="white" stroke-opacity="0.44" stroke-width="5.84128"/>
<path d="M216.976 587.243C216.976 587.243 214.241 512.904 233.332 477.12C251.149 443.724 277.573 449.087 300.116 421.157C336.652 375.888 362.811 273.123 362.811 273.123V23.9942C362.811 23.9942 311.845 -100.299 261.953 -86.1281C229.197 -76.8237 215.117 -47.6254 199.258 -8.50086C175.849 49.253 205.537 94.3554 199.258 159.391C193.052 223.677 185.353 259.516 167.911 320.061C144.112 402.668 97.1799 430.313 83.4086 516.837C74.0762 575.471 46.9055 634.949 83.4086 670.286C110.061 696.086 141.259 696.086 167.911 670.286C204.414 634.949 155.692 574.531 167.911 516.837C180.836 455.807 206.865 432.426 233.332 379.635C263.557 319.347 296.491 296.674 313.745 227.991C332.733 152.408 343.422 93.2645 313.745 23.9942C299.248 -9.84297 291.131 -52.4452 261.953 -48.2171C225.481 -42.9319 263.853 27.7672 261.953 76.3475C258.193 172.541 280.241 246.509 233.332 320.061C218.464 343.372 188.355 370.609 188.355 370.609L143.378 477.12L122.934 610.711" stroke="white" stroke-opacity="0.44" stroke-width="5.84128"/>
</g>
<path d="M470 24.8645C470 21.0733 473.073 18 476.865 18H513.933C517.724 18 520.797 21.0733 520.797 24.8645V61.9328C520.797 65.724 517.724 68.7973 513.933 68.7973H476.864C473.073 68.7973 470 65.724 470 61.9328V24.8645Z" fill="#F37D61"/>
<path d="M504.609 32.5H486.189C485.491 32.5 484.822 32.7471 484.328 33.1869C483.835 33.6268 483.558 34.2233 483.558 34.8454V51.263C483.558 51.885 483.835 52.4816 484.328 52.9214C484.822 53.3612 485.491 53.6083 486.189 53.6083H504.609C505.307 53.6083 505.976 53.3612 506.469 52.9214C506.963 52.4816 507.24 51.885 507.24 51.263V34.8454C507.24 34.2233 506.963 33.6268 506.469 33.1869C505.976 32.7471 505.307 32.5 504.609 32.5ZM504.609 51.263H486.189V34.8454H504.609V51.263ZM491.452 48.9176H488.82V43.0542H491.452V48.9176ZM496.715 48.9176H494.083V37.1907H496.715V48.9176ZM501.977 48.9176H499.346V40.7088H501.977V48.9176Z" fill="white"/>
<g filter="url(#filter0_d_2_631)">
<rect x="408" y="352" width="255" height="128" rx="12" fill="white" fill-opacity="0.9" shape-rendering="crispEdges"/>
</g>
<rect x="495" y="428" width="100" height="40" rx="10" fill="#006A7A"/>
<path d="M520.722 452.156C520.45 452.156 520.186 452.11 519.93 452.018C519.674 451.926 519.444 451.792 519.24 451.616L519.744 451.004C519.876 451.116 520.026 451.204 520.194 451.268C520.362 451.332 520.538 451.364 520.722 451.364C520.998 451.364 521.254 451.29 521.49 451.142C521.73 450.99 521.92 450.79 522.06 450.542C522.2 450.29 522.27 450.024 522.27 449.744V443.6H523.062V449.744C523.062 450.168 522.956 450.566 522.744 450.938C522.536 451.306 522.252 451.602 521.892 451.826C521.536 452.046 521.146 452.156 520.722 452.156ZM527.141 452.156C526.597 452.156 526.095 452.014 525.635 451.73C525.179 451.446 524.815 451.064 524.543 450.584C524.275 450.1 524.141 449.572 524.141 449C524.141 448.424 524.275 447.894 524.543 447.41C524.815 446.926 525.179 446.542 525.635 446.258C526.095 445.974 526.597 445.832 527.141 445.832C527.685 445.832 528.185 445.974 528.641 446.258C529.101 446.542 529.465 446.926 529.733 447.41C530.005 447.894 530.141 448.424 530.141 449C530.141 449.572 530.005 450.1 529.733 450.584C529.465 451.064 529.101 451.446 528.641 451.73C528.185 452.014 527.685 452.156 527.141 452.156ZM527.141 451.364C527.549 451.364 527.921 451.256 528.257 451.04C528.593 450.824 528.859 450.536 529.055 450.176C529.251 449.812 529.349 449.42 529.349 449C529.349 448.576 529.251 448.182 529.055 447.818C528.859 447.454 528.591 447.164 528.251 446.948C527.915 446.732 527.545 446.624 527.141 446.624C526.733 446.624 526.359 446.732 526.019 446.948C525.683 447.164 525.417 447.454 525.221 447.818C525.029 448.182 524.933 448.576 524.933 449C524.933 449.432 525.033 449.83 525.233 450.194C525.433 450.554 525.701 450.84 526.037 451.052C526.377 451.26 526.745 451.364 527.141 451.364ZM531.567 444.98C531.443 444.98 531.335 444.934 531.243 444.842C531.155 444.75 531.111 444.644 531.111 444.524C531.111 444.4 531.155 444.292 531.243 444.2C531.335 444.108 531.443 444.062 531.567 444.062C531.691 444.062 531.799 444.108 531.891 444.2C531.983 444.292 532.029 444.4 532.029 444.524C532.029 444.644 531.983 444.75 531.891 444.842C531.799 444.934 531.691 444.98 531.567 444.98ZM531.933 446V452H531.141V446H531.933ZM537.888 452V448.784C537.888 448.388 537.804 448.024 537.636 447.692C537.468 447.356 537.238 447.09 536.946 446.894C536.654 446.698 536.334 446.6 535.986 446.6C535.642 446.6 535.328 446.698 535.044 446.894C534.76 447.09 534.536 447.356 534.372 447.692C534.208 448.024 534.126 448.388 534.126 448.784V452H533.334V446H534.126V447.02C534.358 446.644 534.642 446.352 534.978 446.144C535.314 445.936 535.682 445.832 536.082 445.832C536.578 445.832 537.022 445.966 537.414 446.234C537.81 446.498 538.118 446.854 538.338 447.302C538.558 447.75 538.672 448.236 538.68 448.76V452H537.888ZM543.014 443.6H543.872L548.372 450.572V443.6H549.164V452H548.312L543.806 445.028V452H543.014V443.6ZM553.274 452.156C552.73 452.156 552.228 452.014 551.768 451.73C551.312 451.446 550.948 451.064 550.676 450.584C550.408 450.1 550.274 449.572 550.274 449C550.274 448.424 550.408 447.894 550.676 447.41C550.948 446.926 551.312 446.542 551.768 446.258C552.228 445.974 552.73 445.832 553.274 445.832C553.818 445.832 554.318 445.974 554.774 446.258C555.234 446.542 555.598 446.926 555.866 447.41C556.138 447.894 556.274 448.424 556.274 449C556.274 449.572 556.138 450.1 555.866 450.584C555.598 451.064 555.234 451.446 554.774 451.73C554.318 452.014 553.818 452.156 553.274 452.156ZM553.274 451.364C553.682 451.364 554.054 451.256 554.39 451.04C554.726 450.824 554.992 450.536 555.188 450.176C555.384 449.812 555.482 449.42 555.482 449C555.482 448.576 555.384 448.182 555.188 447.818C554.992 447.454 554.724 447.164 554.384 446.948C554.048 446.732 553.678 446.624 553.274 446.624C552.866 446.624 552.492 446.732 552.152 446.948C551.816 447.164 551.55 447.454 551.354 447.818C551.162 448.182 551.066 448.576 551.066 449C551.066 449.432 551.166 449.83 551.366 450.194C551.566 450.554 551.834 450.84 552.17 451.052C552.51 451.26 552.878 451.364 553.274 451.364ZM558.718 452L556.708 445.994H557.482L559.138 450.908L560.782 445.994H561.628L563.272 450.908L564.922 445.994H565.702L563.692 452H562.87L561.196 447.038L559.534 452H558.718Z" fill="white"/>
<path d="M487.122 395L483.9 382.4H485.466L488.004 392.345L490.524 382.4H491.883L494.421 392.345L496.95 382.4H498.516L495.312 395H493.548L491.208 385.874L488.877 395H487.122ZM503.263 395.234C502.435 395.234 501.679 395.021 500.995 394.595C500.317 394.169 499.774 393.599 499.366 392.885C498.964 392.165 498.763 391.37 498.763 390.5C498.763 389.84 498.88 389.225 499.114 388.655C499.348 388.079 499.669 387.575 500.077 387.143C500.491 386.705 500.971 386.363 501.517 386.117C502.063 385.871 502.645 385.748 503.263 385.748C503.941 385.748 504.562 385.886 505.126 386.162C505.696 386.432 506.182 386.81 506.584 387.296C506.992 387.782 507.295 388.346 507.493 388.988C507.697 389.63 507.772 390.317 507.718 391.049H500.374C500.446 391.559 500.614 392.015 500.878 392.417C501.142 392.813 501.478 393.128 501.886 393.362C502.3 393.596 502.759 393.716 503.263 393.722C503.803 393.722 504.292 393.584 504.73 393.308C505.168 393.026 505.522 392.642 505.792 392.156L507.331 392.516C506.971 393.314 506.428 393.968 505.702 394.478C504.976 394.982 504.163 395.234 503.263 395.234ZM500.329 389.861H506.197C506.149 389.357 505.987 388.898 505.711 388.484C505.435 388.064 505.084 387.728 504.658 387.476C504.232 387.224 503.767 387.098 503.263 387.098C502.759 387.098 502.297 387.221 501.877 387.467C501.457 387.713 501.109 388.046 500.833 388.466C500.563 388.88 500.395 389.345 500.329 389.861ZM513.771 385.748C514.647 385.748 515.442 385.961 516.156 386.387C516.876 386.813 517.449 387.386 517.875 388.106C518.301 388.82 518.514 389.615 518.514 390.491C518.514 391.145 518.391 391.76 518.145 392.336C517.899 392.906 517.557 393.41 517.119 393.848C516.687 394.28 516.183 394.619 515.607 394.865C515.037 395.111 514.425 395.234 513.771 395.234C513.075 395.234 512.469 395.072 511.953 394.748C511.443 394.418 511.035 393.989 510.729 393.461V395H509.217V381.5H510.729V387.521C511.035 386.993 511.443 386.567 511.953 386.243C512.469 385.913 513.075 385.748 513.771 385.748ZM513.753 393.758C514.347 393.758 514.887 393.611 515.373 393.317C515.859 393.023 516.246 392.63 516.534 392.138C516.822 391.64 516.966 391.091 516.966 390.491C516.966 389.879 516.819 389.327 516.525 388.835C516.231 388.337 515.841 387.944 515.355 387.656C514.869 387.362 514.335 387.215 513.753 387.215C513.165 387.215 512.652 387.362 512.214 387.656C511.782 387.95 511.446 388.346 511.206 388.844C510.972 389.342 510.855 389.891 510.855 390.491C510.855 391.097 510.972 391.649 511.206 392.147C511.446 392.639 511.785 393.032 512.223 393.326C512.661 393.614 513.171 393.758 513.753 393.758ZM524.457 395V382.4H528.624C529.494 382.4 530.31 382.565 531.072 382.895C531.834 383.219 532.503 383.672 533.079 384.254C533.655 384.83 534.105 385.499 534.429 386.261C534.759 387.017 534.924 387.83 534.924 388.7C534.924 389.57 534.759 390.386 534.429 391.148C534.105 391.904 533.655 392.573 533.079 393.155C532.503 393.731 531.834 394.184 531.072 394.514C530.31 394.838 529.494 395 528.624 395H524.457ZM525.969 393.488H528.624C529.284 393.488 529.902 393.365 530.478 393.119C531.06 392.867 531.57 392.522 532.008 392.084C532.446 391.646 532.788 391.139 533.034 390.563C533.286 389.981 533.412 389.36 533.412 388.7C533.412 388.04 533.286 387.422 533.034 386.846C532.788 386.264 532.443 385.754 531.999 385.316C531.561 384.878 531.054 384.536 530.478 384.29C529.902 384.038 529.284 383.912 528.624 383.912H525.969V393.488ZM540.353 395.234C539.525 395.234 538.769 395.021 538.085 394.595C537.407 394.169 536.864 393.599 536.456 392.885C536.054 392.165 535.853 391.37 535.853 390.5C535.853 389.84 535.97 389.225 536.204 388.655C536.438 388.079 536.759 387.575 537.167 387.143C537.581 386.705 538.061 386.363 538.607 386.117C539.153 385.871 539.735 385.748 540.353 385.748C541.031 385.748 541.652 385.886 542.216 386.162C542.786 386.432 543.272 386.81 543.674 387.296C544.082 387.782 544.385 388.346 544.583 388.988C544.787 389.63 544.862 390.317 544.808 391.049H537.464C537.536 391.559 537.704 392.015 537.968 392.417C538.232 392.813 538.568 393.128 538.976 393.362C539.39 393.596 539.849 393.716 540.353 393.722C540.893 393.722 541.382 393.584 541.82 393.308C542.258 393.026 542.612 392.642 542.882 392.156L544.421 392.516C544.061 393.314 543.518 393.968 542.792 394.478C542.066 394.982 541.253 395.234 540.353 395.234ZM537.419 389.861H543.287C543.239 389.357 543.077 388.898 542.801 388.484C542.525 388.064 542.174 387.728 541.748 387.476C541.322 387.224 540.857 387.098 540.353 387.098C539.849 387.098 539.387 387.221 538.967 387.467C538.547 387.713 538.199 388.046 537.923 388.466C537.653 388.88 537.485 389.345 537.419 389.861ZM549.3 395.171C548.814 395.153 548.34 395.063 547.878 394.901C547.422 394.733 547.02 394.508 546.672 394.226C546.33 393.938 546.081 393.608 545.925 393.236L547.221 392.678C547.311 392.882 547.473 393.074 547.707 393.254C547.941 393.434 548.211 393.578 548.517 393.686C548.823 393.794 549.132 393.848 549.444 393.848C549.774 393.848 550.083 393.797 550.371 393.695C550.659 393.593 550.893 393.443 551.073 393.245C551.259 393.041 551.352 392.798 551.352 392.516C551.352 392.216 551.25 391.982 551.046 391.814C550.848 391.64 550.596 391.505 550.29 391.409C549.99 391.307 549.684 391.211 549.372 391.121C548.754 390.965 548.202 390.779 547.716 390.563C547.23 390.341 546.846 390.062 546.564 389.726C546.288 389.384 546.15 388.949 546.15 388.421C546.15 387.863 546.303 387.38 546.609 386.972C546.921 386.564 547.329 386.249 547.833 386.027C548.337 385.805 548.877 385.694 549.453 385.694C550.179 385.694 550.842 385.85 551.442 386.162C552.042 386.474 552.489 386.897 552.783 387.431L551.568 388.142C551.466 387.926 551.31 387.737 551.1 387.575C550.89 387.407 550.65 387.275 550.38 387.179C550.11 387.083 549.834 387.032 549.552 387.026C549.204 387.014 548.877 387.059 548.571 387.161C548.271 387.263 548.028 387.419 547.842 387.629C547.662 387.833 547.572 388.088 547.572 388.394C547.572 388.694 547.668 388.922 547.86 389.078C548.058 389.234 548.313 389.36 548.625 389.456C548.943 389.546 549.288 389.651 549.66 389.771C550.206 389.945 550.716 390.146 551.19 390.374C551.664 390.602 552.045 390.887 552.333 391.229C552.627 391.571 552.771 391.994 552.765 392.498C552.765 393.05 552.6 393.533 552.27 393.947C551.94 394.355 551.511 394.667 550.983 394.883C550.461 395.099 549.9 395.195 549.3 395.171ZM554.287 386H555.799V395H554.287V386ZM555.052 384.353C554.818 384.353 554.62 384.275 554.458 384.119C554.296 383.963 554.215 383.768 554.215 383.534C554.215 383.3 554.296 383.105 554.458 382.949C554.62 382.793 554.818 382.715 555.052 382.715C555.286 382.715 555.484 382.793 555.646 382.949C555.808 383.105 555.889 383.3 555.889 383.534C555.889 383.768 555.808 383.963 555.646 384.119C555.484 384.275 555.286 384.353 555.052 384.353ZM565.482 386H566.994V395.288C566.994 395.882 566.865 396.434 566.607 396.944C566.355 397.46 566.013 397.907 565.581 398.285C565.149 398.669 564.657 398.966 564.105 399.176C563.553 399.392 562.977 399.5 562.377 399.5C561.753 399.5 561.15 399.359 560.568 399.077C559.986 398.801 559.476 398.429 559.038 397.961C558.606 397.499 558.294 396.98 558.102 396.404L559.488 395.774C559.602 396.188 559.806 396.56 560.1 396.89C560.4 397.226 560.748 397.49 561.144 397.682C561.546 397.88 561.957 397.979 562.377 397.979C562.773 397.979 563.154 397.91 563.52 397.772C563.892 397.634 564.225 397.442 564.519 397.196C564.819 396.956 565.053 396.671 565.221 396.341C565.395 396.017 565.482 395.666 565.482 395.288V393.497C565.176 394.013 564.771 394.433 564.267 394.757C563.769 395.075 563.187 395.234 562.521 395.234C561.885 395.234 561.288 395.111 560.73 394.865C560.172 394.619 559.683 394.28 559.263 393.848C558.843 393.41 558.513 392.906 558.273 392.336C558.033 391.766 557.913 391.154 557.913 390.5C557.913 389.846 558.033 389.234 558.273 388.664C558.513 388.088 558.843 387.584 559.263 387.152C559.683 386.714 560.172 386.372 560.73 386.126C561.288 385.88 561.885 385.757 562.521 385.757C563.187 385.757 563.769 385.916 564.267 386.234C564.771 386.552 565.176 386.972 565.482 387.494V386ZM562.53 393.767C563.112 393.767 563.616 393.617 564.042 393.317C564.474 393.017 564.807 392.618 565.041 392.12C565.275 391.622 565.392 391.082 565.392 390.5C565.392 389.9 565.272 389.354 565.032 388.862C564.798 388.364 564.465 387.968 564.033 387.674C563.607 387.374 563.106 387.224 562.53 387.224C561.966 387.224 561.45 387.371 560.982 387.665C560.514 387.959 560.142 388.355 559.866 388.853C559.596 389.345 559.461 389.894 559.461 390.5C559.461 391.106 559.599 391.658 559.875 392.156C560.157 392.648 560.529 393.041 560.991 393.335C561.459 393.623 561.972 393.767 562.53 393.767ZM577.24 390.212V395H575.728V390.248C575.728 389.69 575.611 389.183 575.377 388.727C575.143 388.265 574.825 387.899 574.423 387.629C574.021 387.353 573.568 387.215 573.064 387.215C572.566 387.215 572.122 387.353 571.732 387.629C571.348 387.899 571.045 388.265 570.823 388.727C570.601 389.183 570.49 389.69 570.49 390.248V395H568.978V386H570.49V387.386C570.814 386.876 571.213 386.477 571.687 386.189C572.167 385.895 572.701 385.748 573.289 385.748C574.069 385.748 574.753 385.952 575.341 386.36C575.935 386.768 576.397 387.311 576.727 387.989C577.063 388.661 577.234 389.402 577.24 390.212ZM589.189 395.234C588.337 395.234 587.536 395.066 586.786 394.73C586.036 394.388 585.376 393.92 584.806 393.326C584.242 392.726 583.798 392.03 583.474 391.238C583.156 390.446 582.997 389.6 582.997 388.7C582.997 387.8 583.156 386.954 583.474 386.162C583.798 385.37 584.242 384.677 584.806 384.083C585.376 383.483 586.036 383.015 586.786 382.679C587.536 382.337 588.337 382.166 589.189 382.166C590.209 382.166 591.148 382.403 592.006 382.877C592.864 383.351 593.575 383.981 594.139 384.767L592.798 385.487C592.378 384.935 591.847 384.497 591.205 384.173C590.569 383.843 589.897 383.678 589.189 383.678C588.535 383.678 587.923 383.81 587.353 384.074C586.789 384.338 586.294 384.701 585.868 385.163C585.442 385.625 585.109 386.159 584.869 386.765C584.629 387.371 584.509 388.016 584.509 388.7C584.509 389.39 584.629 390.038 584.869 390.644C585.115 391.25 585.451 391.784 585.877 392.246C586.309 392.708 586.807 393.071 587.371 393.335C587.941 393.593 588.547 393.722 589.189 393.722C589.921 393.722 590.599 393.557 591.223 393.227C591.853 392.891 592.378 392.453 592.798 391.913L594.139 392.642C593.575 393.428 592.864 394.058 592.006 394.532C591.148 395 590.209 395.234 589.189 395.234ZM596.276 395V381.5H597.779V395H596.276ZM607.431 386H608.943V395H607.422L607.368 393.479C607.086 394.001 606.696 394.424 606.198 394.748C605.706 395.072 605.121 395.234 604.443 395.234C603.777 395.234 603.156 395.111 602.58 394.865C602.004 394.613 601.494 394.268 601.05 393.83C600.612 393.386 600.27 392.876 600.024 392.3C599.778 391.724 599.655 391.103 599.655 390.437C599.655 389.795 599.775 389.189 600.015 388.619C600.255 388.049 600.588 387.551 601.014 387.125C601.446 386.693 601.944 386.357 602.508 386.117C603.072 385.871 603.675 385.748 604.317 385.748C605.031 385.748 605.655 385.916 606.189 386.252C606.729 386.582 607.161 387.011 607.485 387.539L607.431 386ZM604.479 393.767C605.079 393.767 605.595 393.617 606.027 393.317C606.459 393.017 606.786 392.615 607.008 392.111C607.236 391.607 607.338 391.049 607.314 390.437C607.29 389.837 607.149 389.294 606.891 388.808C606.633 388.322 606.285 387.938 605.847 387.656C605.409 387.368 604.899 387.224 604.317 387.224C603.723 387.224 603.183 387.374 602.697 387.674C602.211 387.974 601.83 388.376 601.554 388.88C601.284 389.384 601.161 389.945 601.185 390.563C601.215 391.157 601.383 391.697 601.689 392.183C601.995 392.669 602.391 393.056 602.877 393.344C603.369 393.626 603.903 393.767 604.479 393.767ZM613.935 395.171C613.449 395.153 612.975 395.063 612.513 394.901C612.057 394.733 611.655 394.508 611.307 394.226C610.965 393.938 610.716 393.608 610.56 393.236L611.856 392.678C611.946 392.882 612.108 393.074 612.342 393.254C612.576 393.434 612.846 393.578 613.152 393.686C613.458 393.794 613.767 393.848 614.079 393.848C614.409 393.848 614.718 393.797 615.006 393.695C615.294 393.593 615.528 393.443 615.708 393.245C615.894 393.041 615.987 392.798 615.987 392.516C615.987 392.216 615.885 391.982 615.681 391.814C615.483 391.64 615.231 391.505 614.925 391.409C614.625 391.307 614.319 391.211 614.007 391.121C613.389 390.965 612.837 390.779 612.351 390.563C611.865 390.341 611.481 390.062 611.199 389.726C610.923 389.384 610.785 388.949 610.785 388.421C610.785 387.863 610.938 387.38 611.244 386.972C611.556 386.564 611.964 386.249 612.468 386.027C612.972 385.805 613.512 385.694 614.088 385.694C614.814 385.694 615.477 385.85 616.077 386.162C616.677 386.474 617.124 386.897 617.418 387.431L616.203 388.142C616.101 387.926 615.945 387.737 615.735 387.575C615.525 387.407 615.285 387.275 615.015 387.179C614.745 387.083 614.469 387.032 614.187 387.026C613.839 387.014 613.512 387.059 613.206 387.161C612.906 387.263 612.663 387.419 612.477 387.629C612.297 387.833 612.207 388.088 612.207 388.394C612.207 388.694 612.303 388.922 612.495 389.078C612.693 389.234 612.948 389.36 613.26 389.456C613.578 389.546 613.923 389.651 614.295 389.771C614.841 389.945 615.351 390.146 615.825 390.374C616.299 390.602 616.68 390.887 616.968 391.229C617.262 391.571 617.406 391.994 617.4 392.498C617.4 393.05 617.235 393.533 616.905 393.947C616.575 394.355 616.146 394.667 615.618 394.883C615.096 395.099 614.535 395.195 613.935 395.171ZM621.88 395.171C621.394 395.153 620.92 395.063 620.458 394.901C620.002 394.733 619.6 394.508 619.252 394.226C618.91 393.938 618.661 393.608 618.505 393.236L619.801 392.678C619.891 392.882 620.053 393.074 620.287 393.254C620.521 393.434 620.791 393.578 621.097 393.686C621.403 393.794 621.712 393.848 622.024 393.848C622.354 393.848 622.663 393.797 622.951 393.695C623.239 393.593 623.473 393.443 623.653 393.245C623.839 393.041 623.932 392.798 623.932 392.516C623.932 392.216 623.83 391.982 623.626 391.814C623.428 391.64 623.176 391.505 622.87 391.409C622.57 391.307 622.264 391.211 621.952 391.121C621.334 390.965 620.782 390.779 620.296 390.563C619.81 390.341 619.426 390.062 619.144 389.726C618.868 389.384 618.73 388.949 618.73 388.421C618.73 387.863 618.883 387.38 619.189 386.972C619.501 386.564 619.909 386.249 620.413 386.027C620.917 385.805 621.457 385.694 622.033 385.694C622.759 385.694 623.422 385.85 624.022 386.162C624.622 386.474 625.069 386.897 625.363 387.431L624.148 388.142C624.046 387.926 623.89 387.737 623.68 387.575C623.47 387.407 623.23 387.275 622.96 387.179C622.69 387.083 622.414 387.032 622.132 387.026C621.784 387.014 621.457 387.059 621.151 387.161C620.851 387.263 620.608 387.419 620.422 387.629C620.242 387.833 620.152 388.088 620.152 388.394C620.152 388.694 620.248 388.922 620.44 389.078C620.638 389.234 620.893 389.36 621.205 389.456C621.523 389.546 621.868 389.651 622.24 389.771C622.786 389.945 623.296 390.146 623.77 390.374C624.244 390.602 624.625 390.887 624.913 391.229C625.207 391.571 625.351 391.994 625.345 392.498C625.345 393.05 625.18 393.533 624.85 393.947C624.52 394.355 624.091 394.667 623.563 394.883C623.041 395.099 622.48 395.195 621.88 395.171Z" fill="#2F374B"/>
<path d="M490.074 407.392H487.17V415H486.378V407.392H483.48V406.6H490.074V407.392ZM492.969 415.156C492.425 415.156 491.923 415.014 491.463 414.73C491.007 414.446 490.643 414.064 490.371 413.584C490.103 413.1 489.969 412.572 489.969 412C489.969 411.424 490.103 410.894 490.371 410.41C490.643 409.926 491.007 409.542 491.463 409.258C491.923 408.974 492.425 408.832 492.969 408.832C493.513 408.832 494.013 408.974 494.469 409.258C494.929 409.542 495.293 409.926 495.561 410.41C495.833 410.894 495.969 411.424 495.969 412C495.969 412.572 495.833 413.1 495.561 413.584C495.293 414.064 494.929 414.446 494.469 414.73C494.013 415.014 493.513 415.156 492.969 415.156ZM492.969 414.364C493.377 414.364 493.749 414.256 494.085 414.04C494.421 413.824 494.687 413.536 494.883 413.176C495.079 412.812 495.177 412.42 495.177 412C495.177 411.576 495.079 411.182 494.883 410.818C494.687 410.454 494.419 410.164 494.079 409.948C493.743 409.732 493.373 409.624 492.969 409.624C492.561 409.624 492.187 409.732 491.847 409.948C491.511 410.164 491.245 410.454 491.049 410.818C490.857 411.182 490.761 411.576 490.761 412C490.761 412.432 490.861 412.83 491.061 413.194C491.261 413.554 491.529 413.84 491.865 414.052C492.205 414.26 492.573 414.364 492.969 414.364ZM502.687 415H501.895V413.854C501.679 414.258 501.385 414.576 501.013 414.808C500.641 415.04 500.211 415.156 499.723 415.156C499.151 415.156 498.623 415.014 498.139 414.73C497.659 414.446 497.277 414.064 496.993 413.584C496.709 413.1 496.567 412.572 496.567 412C496.567 411.428 496.709 410.9 496.993 410.416C497.277 409.932 497.659 409.548 498.139 409.264C498.623 408.98 499.151 408.838 499.723 408.838C500.211 408.838 500.641 408.954 501.013 409.186C501.385 409.418 501.679 409.736 501.895 410.14V406H502.687V415ZM499.729 414.388C500.153 414.388 500.523 414.282 500.839 414.07C501.159 413.858 501.403 413.57 501.571 413.206C501.743 412.842 501.829 412.44 501.829 412C501.829 411.552 501.743 411.146 501.571 410.782C501.399 410.418 501.153 410.132 500.833 409.924C500.517 409.712 500.149 409.606 499.729 409.606C499.305 409.606 498.911 409.714 498.547 409.93C498.187 410.146 497.901 410.438 497.689 410.806C497.477 411.17 497.371 411.568 497.371 412C497.371 412.436 497.479 412.838 497.695 413.206C497.911 413.57 498.199 413.858 498.559 414.07C498.923 414.282 499.313 414.388 499.729 414.388ZM510.036 415H509.244V413.848C509.028 414.252 508.734 414.572 508.362 414.808C507.99 415.04 507.56 415.156 507.072 415.156C506.5 415.156 505.972 415.014 505.488 414.73C505.008 414.446 504.626 414.064 504.342 413.584C504.058 413.1 503.916 412.572 503.916 412C503.916 411.424 504.058 410.894 504.342 410.41C504.626 409.926 505.008 409.542 505.488 409.258C505.972 408.974 506.5 408.832 507.072 408.832C507.56 408.832 507.99 408.95 508.362 409.186C508.734 409.418 509.028 409.736 509.244 410.14V409H510.036V415ZM507.078 414.388C507.502 414.388 507.872 414.282 508.188 414.07C508.508 413.858 508.752 413.57 508.92 413.206C509.092 412.842 509.178 412.44 509.178 412C509.178 411.552 509.092 411.146 508.92 410.782C508.748 410.418 508.502 410.132 508.182 409.924C507.866 409.712 507.498 409.606 507.078 409.606C506.65 409.606 506.256 409.714 505.896 409.93C505.536 410.142 505.25 410.432 505.038 410.8C504.826 411.168 504.72 411.568 504.72 412C504.72 412.436 504.828 412.836 505.044 413.2C505.26 413.564 505.548 413.854 505.908 414.07C506.272 414.282 506.662 414.388 507.078 414.388ZM516.297 409L513.015 418H512.175L513.267 414.994L511.113 409H511.983L513.663 413.908L515.463 409H516.297ZM526.196 415H525.404V413.848C525.188 414.252 524.894 414.572 524.522 414.808C524.15 415.04 523.72 415.156 523.232 415.156C522.66 415.156 522.132 415.014 521.648 414.73C521.168 414.446 520.786 414.064 520.502 413.584C520.218 413.1 520.076 412.572 520.076 412C520.076 411.424 520.218 410.894 520.502 410.41C520.786 409.926 521.168 409.542 521.648 409.258C522.132 408.974 522.66 408.832 523.232 408.832C523.72 408.832 524.15 408.95 524.522 409.186C524.894 409.418 525.188 409.736 525.404 410.14V409H526.196V415ZM523.238 414.388C523.662 414.388 524.032 414.282 524.348 414.07C524.668 413.858 524.912 413.57 525.08 413.206C525.252 412.842 525.338 412.44 525.338 412C525.338 411.552 525.252 411.146 525.08 410.782C524.908 410.418 524.662 410.132 524.342 409.924C524.026 409.712 523.658 409.606 523.238 409.606C522.81 409.606 522.416 409.714 522.056 409.93C521.696 410.142 521.41 410.432 521.198 410.8C520.986 411.168 520.88 411.568 520.88 412C520.88 412.436 520.988 412.836 521.204 413.2C521.42 413.564 521.708 413.854 522.068 414.07C522.432 414.282 522.822 414.388 523.238 414.388ZM529.244 410.086L529.232 415H528.44L528.452 410.086H527.348V409.294H528.452L528.44 407.116H529.232L529.244 409.294H530.696V410.086H529.244ZM534.698 414.034C535.498 413.298 536.174 412.654 536.726 412.102C537.278 411.55 537.76 410.992 538.172 410.428C538.588 409.86 538.796 409.384 538.796 409C538.796 408.684 538.718 408.392 538.562 408.124C538.406 407.852 538.194 407.636 537.926 407.476C537.658 407.316 537.366 407.236 537.05 407.236C536.734 407.236 536.442 407.316 536.174 407.476C535.906 407.636 535.692 407.852 535.532 408.124C535.376 408.392 535.298 408.684 535.298 409H534.506C534.506 408.536 534.62 408.108 534.848 407.716C535.08 407.324 535.39 407.014 535.778 406.786C536.17 406.558 536.594 406.444 537.05 406.444C537.51 406.444 537.934 406.56 538.322 406.792C538.71 407.02 539.018 407.33 539.246 407.722C539.474 408.11 539.588 408.536 539.588 409C539.588 409.644 539.222 410.428 538.49 411.352C537.758 412.276 536.866 413.228 535.814 414.208H539.72V415H534.41V414.298L534.698 414.034ZM541.381 409.918C541.253 409.918 541.145 409.874 541.057 409.786C540.969 409.694 540.925 409.584 540.925 409.456C540.925 409.328 540.969 409.22 541.057 409.132C541.149 409.044 541.257 409 541.381 409C541.509 409 541.617 409.044 541.705 409.132C541.797 409.22 541.843 409.328 541.843 409.456C541.843 409.584 541.797 409.694 541.705 409.786C541.617 409.874 541.509 409.918 541.381 409.918ZM541.381 415.156C541.253 415.156 541.145 415.11 541.057 415.018C540.969 414.93 540.925 414.822 540.925 414.694C540.925 414.566 540.969 414.458 541.057 414.37C541.149 414.282 541.257 414.238 541.381 414.238C541.509 414.238 541.617 414.282 541.705 414.37C541.797 414.458 541.843 414.566 541.843 414.694C541.843 414.822 541.797 414.93 541.705 415.018C541.617 415.11 541.509 415.156 541.381 415.156ZM546.142 415.156C545.49 415.156 544.92 414.964 544.432 414.58C543.948 414.192 543.576 413.668 543.316 413.008C543.056 412.344 542.926 411.608 542.926 410.8C542.926 409.992 543.056 409.258 543.316 408.598C543.576 407.934 543.948 407.41 544.432 407.026C544.92 406.638 545.49 406.444 546.142 406.444C546.79 406.444 547.356 406.638 547.84 407.026C548.328 407.41 548.7 407.934 548.956 408.598C549.216 409.258 549.346 409.992 549.346 410.8C549.346 411.608 549.216 412.344 548.956 413.008C548.7 413.668 548.328 414.192 547.84 414.58C547.356 414.964 546.79 415.156 546.142 415.156ZM546.142 414.364C546.662 414.364 547.106 414.204 547.474 413.884C547.842 413.564 548.12 413.134 548.308 412.594C548.496 412.054 548.59 411.456 548.59 410.8C548.59 410.12 548.494 409.512 548.302 408.976C548.11 408.436 547.83 408.012 547.462 407.704C547.094 407.392 546.654 407.236 546.142 407.236C545.61 407.236 545.158 407.398 544.786 407.722C544.418 408.042 544.142 408.472 543.958 409.012C543.774 409.552 543.682 410.148 543.682 410.8C543.682 411.456 543.776 412.056 543.964 412.6C544.156 413.14 544.436 413.57 544.804 413.89C545.176 414.206 545.622 414.364 546.142 414.364ZM553.174 415.156C552.522 415.156 551.952 414.964 551.464 414.58C550.98 414.192 550.608 413.668 550.348 413.008C550.088 412.344 549.958 411.608 549.958 410.8C549.958 409.992 550.088 409.258 550.348 408.598C550.608 407.934 550.98 407.41 551.464 407.026C551.952 406.638 552.522 406.444 553.174 406.444C553.822 406.444 554.388 406.638 554.872 407.026C555.36 407.41 555.732 407.934 555.988 408.598C556.248 409.258 556.378 409.992 556.378 410.8C556.378 411.608 556.248 412.344 555.988 413.008C555.732 413.668 555.36 414.192 554.872 414.58C554.388 414.964 553.822 415.156 553.174 415.156ZM553.174 414.364C553.694 414.364 554.138 414.204 554.506 413.884C554.874 413.564 555.152 413.134 555.34 412.594C555.528 412.054 555.622 411.456 555.622 410.8C555.622 410.12 555.526 409.512 555.334 408.976C555.142 408.436 554.862 408.012 554.494 407.704C554.126 407.392 553.686 407.236 553.174 407.236C552.642 407.236 552.19 407.398 551.818 407.722C551.45 408.042 551.174 408.472 550.99 409.012C550.806 409.552 550.714 410.148 550.714 410.8C550.714 411.456 550.808 412.056 550.996 412.6C551.188 413.14 551.468 413.57 551.836 413.89C552.208 414.206 552.654 414.364 553.174 414.364ZM563.001 406.6C563.441 406.6 563.843 406.708 564.207 406.924C564.571 407.14 564.859 407.436 565.071 407.812C565.283 408.184 565.389 408.596 565.389 409.048C565.389 409.504 565.281 409.92 565.065 410.296C564.849 410.668 564.557 410.962 564.189 411.178C563.825 411.394 563.429 411.502 563.001 411.502H561.129V415H560.337V406.6H563.001ZM562.941 410.71C563.241 410.71 563.517 410.636 563.769 410.488C564.021 410.34 564.221 410.136 564.369 409.876C564.521 409.616 564.597 409.328 564.597 409.012C564.597 408.696 564.521 408.408 564.369 408.148C564.221 407.888 564.021 407.684 563.769 407.536C563.517 407.388 563.241 407.314 562.941 407.314H561.129V410.71H562.941ZM567.752 406.6H568.322L570.692 412.84L573.056 406.6H573.626L575.258 415H574.442L573.182 408.484L570.938 414.418H570.434L568.19 408.484L566.93 415H566.126L567.752 406.6Z" fill="#B4B4B4"/>
<circle cx="449" cy="397" r="19" fill="#96B0B7"/>
<g filter="url(#filter1_d_2_631)">
<rect x="32.4158" y="25.5977" width="182.179" height="200.961" rx="7.51254" fill="white"/>
</g>
<path d="M71.5634 48.3091H72.3297L74.02 54.9239L75.7047 48.3091H76.3583L78.0486 54.9239L79.7333 48.3091H80.4996L78.4938 56.1973H77.6092L76.0315 50.0389L74.4595 56.1973H73.5806L71.5634 48.3091ZM83.4873 56.3438C82.9764 56.3438 82.505 56.2104 82.073 55.9437C81.6448 55.677 81.303 55.3183 81.0476 54.8675C80.7959 54.413 80.6701 53.9172 80.6701 53.3801C80.6701 52.8392 80.7959 52.3415 81.0476 51.8869C81.303 51.4324 81.6448 51.0718 82.073 50.8051C82.505 50.5384 82.9764 50.4051 83.4873 50.4051C84.0169 50.4051 84.4939 50.5403 84.9184 50.8108C85.3466 51.0775 85.6809 51.4456 85.9213 51.9151C86.1655 52.3846 86.2876 52.9124 86.2876 53.4984L86.2819 53.6674H81.4532C81.4946 54.0318 81.6091 54.3604 81.7969 54.6534C81.9847 54.9464 82.2252 55.1774 82.5181 55.3465C82.8149 55.5155 83.1379 55.6 83.4873 55.6C83.8666 55.6 84.2122 55.5005 84.524 55.3014C84.8358 55.1023 85.0893 54.8243 85.2846 54.4675L86.034 54.6422C85.8838 54.9765 85.679 55.2732 85.4199 55.5324C85.1644 55.7878 84.8696 55.9869 84.5353 56.1297C84.2047 56.2724 83.8554 56.3438 83.4873 56.3438ZM85.5325 53.0589C85.5063 52.7058 85.3973 52.379 85.2058 52.0785C85.0179 51.7743 84.7719 51.532 84.4676 51.3517C84.1634 51.1714 83.8366 51.0812 83.4873 51.0812C83.1342 51.0812 82.8074 51.1695 82.5069 51.346C82.2101 51.5188 81.966 51.7574 81.7744 52.0616C81.5866 52.3621 81.4739 52.6945 81.4363 53.0589H85.5325ZM89.6829 56.3438C89.1721 56.3438 88.7006 56.2104 88.2687 55.9437C87.8405 55.677 87.4986 55.3183 87.2432 54.8675C86.9915 54.413 86.8657 53.9172 86.8657 53.3801C86.8657 52.8392 86.9915 52.3415 87.2432 51.8869C87.4986 51.4324 87.8405 51.0718 88.2687 50.8051C88.7006 50.5384 89.1721 50.4051 89.6829 50.4051C90.2125 50.4051 90.6896 50.5403 91.114 50.8108C91.5423 51.0775 91.8766 51.4456 92.117 51.9151C92.3611 52.3846 92.4832 52.9124 92.4832 53.4984L92.4776 53.6674H87.6489C87.6902 54.0318 87.8048 54.3604 87.9926 54.6534C88.1804 54.9464 88.4208 55.1774 88.7138 55.3465C89.0105 55.5155 89.3336 55.6 89.6829 55.6C90.0623 55.6 90.4079 55.5005 90.7196 55.3014C91.0314 55.1023 91.285 54.8243 91.4803 54.4675L92.2297 54.6422C92.0794 54.9765 91.8747 55.2732 91.6155 55.5324C91.3601 55.7878 91.0652 55.9869 90.7309 56.1297C90.4004 56.2724 90.051 56.3438 89.6829 56.3438ZM91.7282 53.0589C91.7019 52.7058 91.593 52.379 91.4014 52.0785C91.2136 51.7743 90.9676 51.532 90.6633 51.3517C90.359 51.1714 90.0322 51.0812 89.6829 51.0812C89.3298 51.0812 89.003 51.1695 88.7025 51.346C88.4058 51.5188 88.1616 51.7574 87.97 52.0616C87.7822 52.3621 87.6695 52.6945 87.632 53.0589H91.7282ZM97.0607 56.1973L95.4606 53.4364L94.3055 54.8168V56.1973H93.5618V47.7457H94.3055V53.6561L96.903 50.5629H97.8721L95.962 52.8279L97.9115 56.1973H97.0607ZM99.1742 47.7457H99.9179V56.1916H99.1742V47.7457ZM105.878 50.5629L102.795 59.0145H102.007L103.032 56.1916L101.009 50.5629H101.826L103.404 55.1718L105.094 50.5629H105.878ZM111.59 56.3043C111.271 56.3043 110.957 56.2536 110.649 56.1522C110.345 56.047 110.078 55.9024 109.849 55.7183C109.62 55.5343 109.46 55.3258 109.37 55.0929L110.018 54.8168C110.078 54.9671 110.191 55.1061 110.356 55.2338C110.522 55.3577 110.713 55.4573 110.931 55.5324C111.149 55.6075 111.363 55.6451 111.573 55.6451C111.81 55.6451 112.032 55.6057 112.238 55.5268C112.445 55.4441 112.61 55.3296 112.734 55.1831C112.862 55.0366 112.926 54.8675 112.926 54.676C112.926 54.4806 112.862 54.3229 112.734 54.2027C112.606 54.0787 112.458 53.9848 112.289 53.921C112.12 53.8571 111.87 53.7782 111.54 53.6843C111.085 53.5604 110.715 53.4326 110.43 53.3012C110.144 53.1697 109.921 53.0026 109.759 52.7997C109.598 52.5969 109.517 52.3415 109.517 52.0334C109.517 51.7029 109.611 51.4118 109.799 51.1601C109.99 50.9084 110.244 50.715 110.559 50.5798C110.875 50.4408 111.213 50.3713 111.573 50.3713C112.032 50.3713 112.449 50.4708 112.824 50.6699C113.204 50.869 113.478 51.1338 113.647 51.4644L113.038 51.8193C112.937 51.5902 112.745 51.4024 112.464 51.2559C112.186 51.1094 111.893 51.0361 111.585 51.0361C111.34 51.0361 111.113 51.0756 110.903 51.1545C110.696 51.2334 110.531 51.3479 110.407 51.4982C110.287 51.6447 110.227 51.8175 110.227 52.0165C110.227 52.1931 110.272 52.3339 110.362 52.4391C110.452 52.5443 110.569 52.6288 110.711 52.6927C110.854 52.7528 111.066 52.8241 111.348 52.9068L111.664 53.0026C112.077 53.1378 112.42 53.273 112.695 53.4082C112.973 53.5397 113.198 53.7087 113.371 53.9153C113.547 54.1219 113.634 54.3736 113.63 54.6703C113.63 54.9896 113.534 55.2732 113.343 55.5211C113.155 55.7691 112.905 55.9625 112.593 56.1015C112.281 56.2367 111.947 56.3043 111.59 56.3043ZM114.661 50.5629H115.404V51.6447C115.607 51.2653 115.881 50.9667 116.227 50.7488C116.576 50.5272 116.98 50.4164 117.438 50.4164C117.975 50.4164 118.471 50.5497 118.926 50.8164C119.38 51.0831 119.739 51.4437 120.002 51.8982C120.269 52.349 120.402 52.8429 120.402 53.3801C120.402 53.921 120.269 54.4187 120.002 54.8732C119.739 55.3277 119.38 55.6883 118.926 55.955C118.471 56.2217 117.975 56.355 117.438 56.355C116.98 56.355 116.576 56.2461 116.227 56.0282C115.881 55.8066 115.607 55.5061 115.404 55.1267V59.0145H114.661V50.5629ZM117.433 51.1376C117.042 51.1376 116.696 51.2371 116.396 51.4362C116.099 51.6353 115.87 51.9057 115.709 52.2475C115.547 52.5856 115.466 52.9631 115.466 53.3801C115.466 53.7933 115.545 54.1708 115.703 54.5126C115.864 54.8544 116.094 55.1267 116.39 55.3296C116.691 55.5286 117.038 55.6282 117.433 55.6282C117.827 55.6282 118.193 55.5286 118.531 55.3296C118.873 55.1305 119.144 54.86 119.343 54.5182C119.546 54.1726 119.647 53.7933 119.647 53.3801C119.647 52.9781 119.547 52.6063 119.348 52.2644C119.153 51.9189 118.884 51.6447 118.543 51.4418C118.205 51.239 117.835 51.1376 117.433 51.1376ZM123.897 56.3438C123.386 56.3438 122.914 56.2104 122.482 55.9437C122.054 55.677 121.712 55.3183 121.457 54.8675C121.205 54.413 121.079 53.9172 121.079 53.3801C121.079 52.8392 121.205 52.3415 121.457 51.8869C121.712 51.4324 122.054 51.0718 122.482 50.8051C122.914 50.5384 123.386 50.4051 123.897 50.4051C124.426 50.4051 124.903 50.5403 125.328 50.8108C125.756 51.0775 126.09 51.4456 126.331 51.9151C126.575 52.3846 126.697 52.9124 126.697 53.4984L126.691 53.6674H121.863C121.904 54.0318 122.018 54.3604 122.206 54.6534C122.394 54.9464 122.634 55.1774 122.927 55.3465C123.224 55.5155 123.547 55.6 123.897 55.6C124.276 55.6 124.621 55.5005 124.933 55.3014C125.245 55.1023 125.499 54.8243 125.694 54.4675L126.443 54.6422C126.293 54.9765 126.088 55.2732 125.829 55.5324C125.574 55.7878 125.279 55.9869 124.945 56.1297C124.614 56.2724 124.265 56.3438 123.897 56.3438ZM125.942 53.0589C125.916 52.7058 125.807 52.379 125.615 52.0785C125.427 51.7743 125.181 51.532 124.877 51.3517C124.573 51.1714 124.246 51.0812 123.897 51.0812C123.543 51.0812 123.217 51.1695 122.916 51.346C122.619 51.5188 122.375 51.7574 122.184 52.0616C121.996 52.3621 121.883 52.6945 121.846 53.0589H125.942ZM131.832 56.1973V53.1772C131.832 52.8054 131.753 52.4635 131.595 52.1518C131.437 51.8362 131.221 51.5864 130.947 51.4024C130.673 51.2183 130.373 51.1263 130.046 51.1263C129.723 51.1263 129.428 51.2183 129.161 51.4024C128.894 51.5864 128.684 51.8362 128.53 52.1518C128.376 52.4635 128.299 52.8054 128.299 53.1772V56.1973H127.555V50.5629H128.299V51.5207C128.517 51.1676 128.784 50.8934 129.099 50.6981C129.415 50.5028 129.76 50.4051 130.136 50.4051C130.602 50.4051 131.019 50.5309 131.387 50.7826C131.759 51.0305 132.048 51.3648 132.254 51.7855C132.461 52.2062 132.568 52.6626 132.576 53.1547V56.1973H131.832ZM139.086 56.1973H138.342V55.1211C138.139 55.5005 137.863 55.7991 137.514 56.017C137.164 56.2348 136.761 56.3438 136.302 56.3438C135.765 56.3438 135.269 56.2104 134.815 55.9437C134.364 55.677 134.005 55.3183 133.739 54.8675C133.472 54.413 133.339 53.9172 133.339 53.3801C133.339 52.8429 133.472 52.3471 133.739 51.8926C134.005 51.4381 134.364 51.0775 134.815 50.8108C135.269 50.5441 135.765 50.4107 136.302 50.4107C136.761 50.4107 137.164 50.5197 137.514 50.7375C137.863 50.9554 138.139 51.254 138.342 51.6334V47.7457H139.086V56.1973ZM136.308 55.6226C136.706 55.6226 137.054 55.523 137.35 55.3239C137.651 55.1248 137.88 54.8544 138.038 54.5126C138.199 54.1708 138.28 53.7933 138.28 53.3801C138.28 52.9594 138.199 52.5781 138.038 52.2363C137.876 51.8945 137.645 51.6259 137.345 51.4306C137.048 51.2315 136.702 51.1319 136.308 51.1319C135.91 51.1319 135.54 51.2334 135.198 51.4362C134.86 51.639 134.591 51.9132 134.392 52.2588C134.193 52.6006 134.094 52.9744 134.094 53.3801C134.094 53.7895 134.195 54.167 134.398 54.5126C134.601 54.8544 134.871 55.1248 135.209 55.3239C135.551 55.523 135.917 55.6226 136.308 55.6226ZM148.925 48.3091V56.1973H148.181V52.3433H143.972V56.1973H143.229V48.3091H143.972V51.5996H148.181V48.3091H148.925ZM152.674 56.3438C152.163 56.3438 151.692 56.2104 151.26 55.9437C150.831 55.677 150.49 55.3183 150.234 54.8675C149.982 54.413 149.857 53.9172 149.857 53.3801C149.857 52.8392 149.982 52.3415 150.234 51.8869C150.49 51.4324 150.831 51.0718 151.26 50.8051C151.692 50.5384 152.163 50.4051 152.674 50.4051C153.185 50.4051 153.654 50.5384 154.082 50.8051C154.514 51.0718 154.856 51.4324 155.108 51.8869C155.363 52.3415 155.491 52.8392 155.491 53.3801C155.491 53.9172 155.363 54.413 155.108 54.8675C154.856 55.3183 154.514 55.677 154.082 55.9437C153.654 56.2104 153.185 56.3438 152.674 56.3438ZM152.674 55.6C153.057 55.6 153.406 55.4986 153.722 55.2958C154.037 55.0929 154.287 54.8225 154.471 54.4844C154.655 54.1426 154.747 53.7745 154.747 53.3801C154.747 52.9819 154.655 52.6119 154.471 52.2701C154.287 51.9283 154.035 51.6559 153.716 51.4531C153.401 51.2503 153.053 51.1488 152.674 51.1488C152.291 51.1488 151.939 51.2503 151.62 51.4531C151.305 51.6559 151.055 51.9283 150.871 52.2701C150.691 52.6119 150.6 52.9819 150.6 53.3801C150.6 53.7857 150.694 54.1595 150.882 54.5013C151.07 54.8394 151.322 55.1079 151.637 55.307C151.956 55.5024 152.302 55.6 152.674 55.6ZM157.145 50.5629V53.5716C157.145 53.9435 157.224 54.2872 157.382 54.6027C157.539 54.9145 157.755 55.1624 158.03 55.3465C158.304 55.5305 158.604 55.6226 158.931 55.6226C159.258 55.6226 159.555 55.5305 159.821 55.3465C160.088 55.1624 160.297 54.9145 160.447 54.6027C160.601 54.2872 160.678 53.9435 160.678 53.5716V50.5629H161.422V56.1973H160.678V55.2281C160.46 55.5812 160.193 55.8573 159.878 56.0564C159.562 56.2517 159.217 56.3494 158.841 56.3494C158.375 56.3494 157.958 56.2254 157.59 55.9775C157.222 55.7259 156.933 55.3897 156.723 54.969C156.512 54.5445 156.405 54.0862 156.401 53.5942V50.5629H157.145ZM165.906 51.2784C165.699 51.1808 165.487 51.1319 165.269 51.1319C164.942 51.1319 164.646 51.224 164.379 51.408C164.112 51.5921 163.902 51.8419 163.748 52.1574C163.598 52.4692 163.522 52.811 163.522 53.1829V56.1973H162.773V50.5685H163.517V51.5207C163.735 51.1676 164.001 50.8953 164.317 50.7037C164.636 50.5084 164.986 50.4107 165.365 50.4107C165.624 50.4107 165.844 50.4408 166.024 50.5009L165.906 51.2784ZM168.749 56.3043C168.429 56.3043 168.116 56.2536 167.808 56.1522C167.504 56.047 167.237 55.9024 167.008 55.7183C166.779 55.5343 166.619 55.3258 166.529 55.0929L167.177 54.8168C167.237 54.9671 167.349 55.1061 167.515 55.2338C167.68 55.3577 167.872 55.4573 168.089 55.5324C168.307 55.6075 168.521 55.6451 168.732 55.6451C168.968 55.6451 169.19 55.6057 169.397 55.5268C169.603 55.4441 169.769 55.3296 169.892 55.1831C170.02 55.0366 170.084 54.8675 170.084 54.676C170.084 54.4806 170.02 54.3229 169.892 54.2027C169.765 54.0787 169.616 53.9848 169.447 53.921C169.278 53.8571 169.029 53.7782 168.698 53.6843C168.243 53.5604 167.873 53.4326 167.588 53.3012C167.303 53.1697 167.079 53.0026 166.918 52.7997C166.756 52.5969 166.675 52.3415 166.675 52.0334C166.675 51.7029 166.769 51.4118 166.957 51.1601C167.149 50.9084 167.402 50.715 167.718 50.5798C168.033 50.4408 168.371 50.3713 168.732 50.3713C169.19 50.3713 169.607 50.4708 169.983 50.6699C170.362 50.869 170.636 51.1338 170.805 51.4644L170.197 51.8193C170.095 51.5902 169.904 51.4024 169.622 51.2559C169.344 51.1094 169.051 51.0361 168.743 51.0361C168.499 51.0361 168.272 51.0756 168.061 51.1545C167.855 51.2334 167.689 51.3479 167.565 51.4982C167.445 51.6447 167.385 51.8175 167.385 52.0165C167.385 52.1931 167.43 52.3339 167.52 52.4391C167.611 52.5443 167.727 52.6288 167.87 52.6927C168.012 52.7528 168.225 52.8241 168.506 52.9068L168.822 53.0026C169.235 53.1378 169.579 53.273 169.853 53.4082C170.131 53.5397 170.356 53.7087 170.529 53.9153C170.706 54.1219 170.792 54.3736 170.788 54.6703C170.788 54.9896 170.693 55.2732 170.501 55.5211C170.313 55.7691 170.063 55.9625 169.752 56.1015C169.44 56.2367 169.106 56.3043 168.749 56.3043Z" fill="#898989"/>
<path d="M90.1812 80.1295H86.4883V79.3054L89.9676 74.0072H90.9869V79.3237H91.8964V80.1295H90.9869V82.5527H90.1812V80.1295ZM90.1812 79.3237L90.1629 75.167L87.4466 79.3054L90.1812 79.3237ZM95.8453 82.7114C95.3325 82.7114 94.8625 82.5873 94.4353 82.3391C94.0121 82.0868 93.6763 81.747 93.4281 81.3197C93.1799 80.8925 93.0558 80.4286 93.0558 79.928H93.8615C93.8615 80.2861 93.949 80.6178 94.124 80.923C94.303 81.2241 94.5451 81.4642 94.8503 81.6432C95.1555 81.8182 95.4872 81.9057 95.8453 81.9057C96.2034 81.9057 96.533 81.8162 96.8341 81.6371C97.1352 81.4581 97.3753 81.218 97.5544 80.9169C97.7334 80.6157 97.823 80.2861 97.823 79.928C97.823 79.5618 97.7355 79.2281 97.5605 78.927C97.3896 78.6218 97.1454 78.3797 96.828 78.2006C96.5147 78.0216 96.1525 77.932 95.7415 77.932H93.6662L94.4658 74.0072H98.4517V74.8129H95.1189L94.6611 77.1263L95.6866 77.1324C96.2603 77.1406 96.769 77.2647 97.2126 77.5048C97.6602 77.7408 98.0081 78.0704 98.2563 78.4936C98.5046 78.9127 98.6287 79.3909 98.6287 79.928C98.6287 80.4286 98.5025 80.8925 98.2502 81.3197C98.002 81.747 97.6643 82.0868 97.237 82.3391C96.8097 82.5873 96.3458 82.7114 95.8453 82.7114ZM107.595 82.5527V79.2871C107.595 78.8843 107.51 78.514 107.339 78.1762C107.168 77.8344 106.936 77.5638 106.643 77.3644C106.354 77.165 106.039 77.0653 105.697 77.0653C105.343 77.0653 105.023 77.165 104.739 77.3644C104.458 77.5597 104.238 77.8283 104.079 78.1701C103.921 78.5079 103.841 78.8802 103.841 79.2871V82.5527H103.03V73.3968H103.835V77.4315C104.043 77.0531 104.311 76.7682 104.641 76.577C104.971 76.3816 105.341 76.284 105.752 76.284C106.256 76.284 106.708 76.4203 107.107 76.6929C107.51 76.9615 107.823 77.3237 108.047 77.7795C108.275 78.2311 108.393 78.7256 108.401 79.2627V82.5527H107.595ZM113.016 77.224C112.792 77.1182 112.562 77.0653 112.326 77.0653C111.972 77.0653 111.651 77.165 111.362 77.3644C111.073 77.5638 110.845 77.8344 110.678 78.1762C110.515 78.514 110.434 78.8843 110.434 79.2871V82.5527H109.622V76.4549H110.428V77.4865C110.664 77.1039 110.953 76.8089 111.295 76.6014C111.641 76.3898 112.019 76.284 112.43 76.284C112.711 76.284 112.949 76.3165 113.144 76.3816L113.016 77.224ZM119.499 82.7114C118.974 82.7114 118.485 82.5792 118.034 82.3147C117.582 82.0502 117.224 81.6921 116.959 81.2404C116.695 80.7887 116.563 80.2963 116.563 79.7632C116.563 79.4662 116.595 79.2078 116.66 78.988C116.729 78.7683 116.843 78.5119 117.002 78.2189L119.425 74.0072H120.359L118.571 77.108C118.909 76.9697 119.254 76.9005 119.608 76.9005C120.101 76.9005 120.565 77.0246 121 77.2728C121.44 77.5211 121.792 77.8649 122.056 78.3044C122.321 78.7398 122.453 79.2261 122.453 79.7632C122.453 80.2922 122.321 80.7826 122.056 81.2343C121.792 81.686 121.432 82.0461 120.976 82.3147C120.524 82.5792 120.032 82.7114 119.499 82.7114ZM119.499 81.9057C119.901 81.9057 120.266 81.806 120.591 81.6066C120.921 81.4072 121.179 81.1427 121.366 80.8131C121.554 80.4835 121.647 80.1315 121.647 79.7571C121.647 79.3705 121.552 79.0145 121.36 78.6889C121.169 78.3634 120.909 78.105 120.579 77.9137C120.253 77.7225 119.897 77.6269 119.511 77.6269C119.112 77.6269 118.748 77.7245 118.418 77.9198C118.093 78.1152 117.836 78.3776 117.649 78.7073C117.462 79.0328 117.368 79.3828 117.368 79.7571C117.368 80.1519 117.466 80.514 117.661 80.8436C117.857 81.1732 118.117 81.4337 118.443 81.6249C118.772 81.8121 119.124 81.9057 119.499 81.9057ZM126.452 82.7114C125.789 82.7114 125.209 82.5161 124.713 82.1255C124.22 81.7307 123.842 81.1977 123.577 80.5262C123.313 79.8507 123.181 79.102 123.181 78.28C123.181 77.458 123.313 76.7113 123.577 76.0398C123.842 75.3643 124.22 74.8312 124.713 74.4406C125.209 74.0459 125.789 73.8485 126.452 73.8485C127.112 73.8485 127.687 74.0459 128.18 74.4406C128.676 74.8312 129.055 75.3643 129.315 76.0398C129.58 76.7113 129.712 77.458 129.712 78.28C129.712 79.102 129.58 79.8507 129.315 80.5262C129.055 81.1977 128.676 81.7307 128.18 82.1255C127.687 82.5161 127.112 82.7114 126.452 82.7114ZM126.452 81.9057C126.981 81.9057 127.433 81.7429 127.807 81.4174C128.182 81.0919 128.465 80.6544 128.656 80.1051C128.847 79.5557 128.943 78.9473 128.943 78.28C128.943 77.5882 128.845 76.9697 128.65 76.4244C128.454 75.875 128.17 75.4437 127.795 75.1303C127.421 74.8129 126.973 74.6542 126.452 74.6542C125.911 74.6542 125.451 74.819 125.073 75.1487C124.698 75.4742 124.418 75.9116 124.231 76.461C124.043 77.0104 123.95 77.6167 123.95 78.28C123.95 78.9473 124.045 79.5577 124.237 80.1112C124.432 80.6605 124.717 81.098 125.091 81.4235C125.47 81.745 125.923 81.9057 126.452 81.9057ZM134.387 76.4488V77.4254C134.615 77.0551 134.857 76.7784 135.113 76.5953C135.37 76.4122 135.685 76.3206 136.059 76.3206C136.56 76.3206 136.989 76.4468 137.347 76.6991C137.71 76.9513 138.001 77.3074 138.22 77.7672C138.44 77.3033 138.731 76.9473 139.093 76.6991C139.459 76.4468 139.889 76.3206 140.381 76.3206C140.878 76.3206 141.313 76.4529 141.687 76.7174C142.066 76.9778 142.355 77.3298 142.554 77.7733C142.758 78.2128 142.859 78.6971 142.859 79.2261V82.5527H142.054V79.2261C142.054 78.8354 141.986 78.4814 141.852 78.164C141.722 77.8466 141.529 77.5943 141.272 77.4071C141.02 77.2199 140.723 77.1263 140.381 77.1263C140.035 77.1263 139.728 77.2199 139.459 77.4071C139.195 77.5943 138.989 77.8486 138.843 78.1701C138.696 78.4875 138.623 78.8395 138.623 79.2261V82.5527H137.817V79.2261C137.817 78.8395 137.744 78.4875 137.598 78.1701C137.451 77.8486 137.244 77.5943 136.975 77.4071C136.711 77.2199 136.405 77.1263 136.059 77.1263C135.742 77.1263 135.455 77.2281 135.199 77.4315C134.942 77.6309 134.743 77.8995 134.601 78.2372C134.458 78.5709 134.387 78.929 134.387 79.3115V82.5527H133.581V76.4488H134.387ZM144.624 75.4111C144.497 75.4111 144.387 75.3643 144.294 75.2707C144.204 75.1771 144.16 75.0693 144.16 74.9472C144.16 74.8211 144.204 74.7112 144.294 74.6176C144.387 74.524 144.497 74.4772 144.624 74.4772C144.75 74.4772 144.86 74.524 144.953 74.6176C145.047 74.7112 145.094 74.8211 145.094 74.9472C145.094 75.0693 145.047 75.1771 144.953 75.2707C144.86 75.3643 144.75 75.4111 144.624 75.4111ZM144.996 76.4488V82.5527H144.19V76.4488H144.996ZM151.055 82.5527V79.281C151.055 78.8782 150.969 78.5079 150.798 78.1701C150.627 77.8283 150.394 77.5577 150.096 77.3583C149.799 77.1589 149.474 77.0592 149.12 77.0592C148.77 77.0592 148.45 77.1589 148.161 77.3583C147.873 77.5577 147.645 77.8283 147.478 78.1701C147.311 78.5079 147.228 78.8782 147.228 79.281V82.5527H146.422V76.4488H147.228V77.4865C147.464 77.1039 147.753 76.8069 148.094 76.5953C148.436 76.3837 148.811 76.2779 149.217 76.2779C149.722 76.2779 150.174 76.4142 150.573 76.6868C150.975 76.9554 151.289 77.3176 151.513 77.7733C151.736 78.2291 151.852 78.7235 151.86 79.2566V82.5527H151.055ZM155.247 82.6687C154.901 82.6687 154.561 82.6138 154.228 82.5039C153.898 82.39 153.609 82.2333 153.361 82.0339C153.113 81.8345 152.94 81.6087 152.842 81.3564L153.544 81.0573C153.609 81.22 153.731 81.3706 153.91 81.509C154.089 81.6432 154.297 81.7511 154.533 81.8325C154.769 81.9139 155.001 81.9545 155.229 81.9545C155.485 81.9545 155.725 81.9118 155.949 81.8264C156.173 81.7368 156.352 81.6127 156.486 81.454C156.624 81.2953 156.694 81.1122 156.694 80.9047C156.694 80.6931 156.624 80.5222 156.486 80.3919C156.348 80.2577 156.187 80.1559 156.004 80.0867C155.821 80.0176 155.55 79.9321 155.192 79.8304C154.7 79.6961 154.299 79.5577 153.99 79.4153C153.68 79.2729 153.438 79.0918 153.263 78.8721C153.088 78.6523 153.001 78.3756 153.001 78.0419C153.001 77.6838 153.102 77.3685 153.306 77.0958C153.513 76.8232 153.788 76.6136 154.13 76.4671C154.472 76.3165 154.838 76.2413 155.229 76.2413C155.725 76.2413 156.177 76.3491 156.584 76.5648C156.995 76.7804 157.292 77.0673 157.475 77.4254L156.816 77.81C156.706 77.5617 156.498 77.3583 156.193 77.1996C155.892 77.0409 155.575 76.9615 155.241 76.9615C154.976 76.9615 154.73 77.0043 154.502 77.0897C154.278 77.1752 154.099 77.2993 153.965 77.462C153.835 77.6207 153.77 77.8079 153.77 78.0236C153.77 78.2149 153.819 78.3675 153.916 78.4814C154.014 78.5953 154.14 78.6869 154.295 78.7561C154.449 78.8212 154.679 78.8985 154.984 78.988L155.326 79.0918C155.774 79.2383 156.146 79.3848 156.443 79.5313C156.744 79.6737 156.989 79.8568 157.176 80.0806C157.367 80.3044 157.461 80.5771 157.457 80.8986C157.457 81.2445 157.353 81.5517 157.145 81.8203C156.942 82.0888 156.671 82.2984 156.333 82.449C155.996 82.5955 155.634 82.6687 155.247 82.6687Z" fill="#6871D1"/>
<path d="M52.1362 120.915C52.1362 118.062 54.4486 115.75 57.3011 115.75C60.1536 115.75 62.466 118.062 62.466 120.915V209.657H52.1362V120.915Z" fill="#6871D1"/>
<path d="M74.6738 146.27C74.6738 143.418 76.9862 141.105 79.8387 141.105C82.6912 141.105 85.0036 143.418 85.0036 146.27V209.657H74.6738V146.27Z" fill="#343954" fill-opacity="0.2"/>
<path d="M97.2114 135.94C97.2114 133.088 99.5238 130.775 102.376 130.775C105.229 130.775 107.541 133.088 107.541 135.94V209.657H97.2114V135.94Z" fill="#5FAEC4"/>
<path d="M119.749 120.915C119.749 118.062 122.061 115.75 124.914 115.75C127.766 115.75 130.079 118.062 130.079 120.915V209.657H119.749V120.915Z" fill="#6871D1"/>
<path d="M142.287 162.233C142.287 159.381 144.599 157.068 147.452 157.068C150.304 157.068 152.617 159.381 152.617 162.233V209.656H142.287V162.233Z" fill="#D6D7DD"/>
<path d="M164.824 162.233C164.824 159.381 167.137 157.068 169.989 157.068C172.842 157.068 175.154 159.381 175.154 162.233V209.656H164.824V162.233Z" fill="#D6D7DD"/>
<path d="M187.362 120.915C187.362 118.062 189.674 115.75 192.527 115.75C195.379 115.75 197.692 118.062 197.692 120.915V209.657H187.362V120.915Z" fill="#6871D1"/>
<rect x="52.1362" y="208.717" width="145.556" height="0.939068" fill="#343954"/>
<g filter="url(#filter2_ddd_2_631)">
<rect x="8" y="4" width="44.1362" height="44.1362" rx="7.51254" fill="#5FAEC4"/>
<g clip-path="url(#clip1_2_631)">
<path d="M42.7456 35.0935V16.1035C42.7456 15.384 42.4598 14.694 41.951 14.1852C41.4423 13.6764 40.7522 13.3906 40.0327 13.3906H21.0427C20.3232 13.3906 19.6332 13.6764 19.1244 14.1852C18.6157 14.694 18.3298 15.384 18.3298 16.1035V35.0935C18.3298 35.813 18.6157 36.5031 19.1244 37.0118C19.6332 37.5206 20.3232 37.8064 21.0427 37.8064H40.0327C40.7522 37.8064 41.4423 37.5206 41.951 37.0118C42.4598 36.5031 42.7456 35.813 42.7456 35.0935ZM26.4684 33.7371H23.7556V25.5985H26.4684V33.7371ZM31.8942 33.7371H29.1813V18.8164H31.8942V33.7371ZM37.3199 33.7371H34.607V22.8856H37.3199V33.7371Z" fill="white"/>
</g>
</g>
<defs>
<filter id="filter0_d_2_631" x="384" y="332" width="303" height="176" filterUnits="userSpaceOnUse" color-interpolation-filters="sRGB">
<feFlood flood-opacity="0" result="BackgroundImageFix"/>
<feColorMatrix in="SourceAlpha" type="matrix" values="0 0 0 0 0 0 0 0 0 0 0 0 0 0 0 0 0 0 127 0" result="hardAlpha"/>
<feOffset dy="4"/>
<feGaussianBlur stdDeviation="12"/>
<feComposite in2="hardAlpha" operator="out"/>
<feColorMatrix type="matrix" values="0 0 0 0 0 0 0 0 0 0 0 0 0 0 0 0 0 0 0.08 0"/>
<feBlend mode="normal" in2="BackgroundImageFix" result="effect1_dropShadow_2_631"/>
<feBlend mode="normal" in="SourceGraphic" in2="effect1_dropShadow_2_631" result="shape"/>
</filter>
<filter id="filter1_d_2_631" x="32.4158" y="20.9023" width="224.437" height="238.524" filterUnits="userSpaceOnUse" color-interpolation-filters="sRGB">
<feFlood flood-opacity="0" result="BackgroundImageFix"/>
<feColorMatrix in="SourceAlpha" type="matrix" values="0 0 0 0 0 0 0 0 0 0 0 0 0 0 0 0 0 0 127 0" result="hardAlpha"/>
<feOffset dx="23.4767" dy="14.086"/>
<feGaussianBlur stdDeviation="9.39068"/>
<feComposite in2="hardAlpha" operator="out"/>
<feColorMatrix type="matrix" values="0 0 0 0 0 0 0 0 0 0 0 0 0 0 0 0 0 0 0.08 0"/>
<feBlend mode="normal" in2="BackgroundImageFix" result="effect1_dropShadow_2_631"/>
<feBlend mode="normal" in="SourceGraphic" in2="effect1_dropShadow_2_631" result="shape"/>
</filter>
<filter id="filter2_ddd_2_631" x="0.487455" y="0.243728" width="59.1613" height="59.1618" filterUnits="userSpaceOnUse" color-interpolation-filters="sRGB">
<feFlood flood-opacity="0" result="BackgroundImageFix"/>
<feColorMatrix in="SourceAlpha" type="matrix" values="0 0 0 0 0 0 0 0 0 0 0 0 0 0 0 0 0 0 127 0" result="hardAlpha"/>
<feOffset/>
<feGaussianBlur stdDeviation="0.469534"/>
<feColorMatrix type="matrix" values="0 0 0 0 0 0 0 0 0 0 0 0 0 0 0 0 0 0 0.25 0"/>
<feBlend mode="normal" in2="BackgroundImageFix" result="effect1_dropShadow_2_631"/>
<feColorMatrix in="SourceAlpha" type="matrix" values="0 0 0 0 0 0 0 0 0 0 0 0 0 0 0 0 0 0 127 0" result="hardAlpha"/>
<feOffset/>
<feGaussianBlur stdDeviation="0.939068"/>
<feColorMatrix type="matrix" values="0 0 0 0 0.372549 0 0 0 0 0.682353 0 0 0 0 0.768627 0 0 0 0.25 0"/>
<feBlend mode="normal" in2="effect1_dropShadow_2_631" result="effect2_dropShadow_2_631"/>
<feColorMatrix in="SourceAlpha" type="matrix" values="0 0 0 0 0 0 0 0 0 0 0 0 0 0 0 0 0 0 127 0" result="hardAlpha"/>
<feOffset dy="3.75627"/>
<feGaussianBlur stdDeviation="3.75627"/>
<feColorMatrix type="matrix" values="0 0 0 0 0.372549 0 0 0 0 0.682353 0 0 0 0 0.768627 0 0 0 0.25 0"/>
<feBlend mode="normal" in2="effect2_dropShadow_2_631" result="effect3_dropShadow_2_631"/>
<feBlend mode="normal" in="SourceGraphic" in2="effect3_dropShadow_2_631" result="shape"/>
</filter>
<clipPath id="clip0_2_631">
<rect x="135" y="69" width="418" height="467" rx="16" fill="white"/>
</clipPath>
<clipPath id="clip1_2_631">
<rect width="24.4158" height="24.4158" fill="white" transform="translate(18.3298 13.3906)"/>
</clipPath>
</defs>
</svg>
