<svg width="142" height="87" viewBox="0 0 142 87" fill="none" xmlns="http://www.w3.org/2000/svg">
<path fill-rule="evenodd" clip-rule="evenodd" d="M141.89 1.85827C141.917 1.30665 141.492 0.837635 140.94 0.810713C140.388 0.783789 139.919 1.20905 139.892 1.76058L139.892 1.76077L139.892 1.76122L139.892 1.76492L139.891 1.78203L139.887 1.8544C139.883 1.91939 139.877 2.01756 139.868 2.14711C139.851 2.40622 139.821 2.79079 139.776 3.28648C139.685 4.27799 139.531 5.71332 139.275 7.47788C138.764 11.009 137.849 15.8481 136.238 21.0823C133.005 31.5893 127.026 43.4959 116.072 49.7684C109.444 53.5639 101.959 54.7515 95.631 53.9495C95.8197 53.2062 95.9845 52.4653 96.124 51.7311C96.7523 48.4242 96.8819 45.1856 96.3331 42.4443C95.7847 39.7051 94.5305 37.3484 92.296 36.0297C89.9472 34.6437 86.8537 34.2838 84.2704 35.1849C81.6136 36.1115 79.5266 38.3718 79.3821 42.0365C79.1136 48.8488 84.7785 53.5248 92.0841 55.325C92.4171 55.4071 92.7544 55.4835 93.0956 55.5541C91.5316 60.5086 88.9256 65.3166 85.7961 68.4922C71.6121 82.8849 50.8878 84.8232 33.4947 83.0647C24.8224 82.188 17.0428 80.3977 11.4292 78.8253C8.62366 78.0394 6.36244 77.3089 4.80514 76.7758C4.44738 76.6533 4.12682 76.5413 3.8454 76.4414L10.7363 71.9436C11.1987 71.6417 11.3289 71.0221 11.0271 70.5596C10.7252 70.0971 10.1056 69.9669 9.64307 70.2688L0.733946 76.084C0.287978 76.3751 0.148389 76.9647 0.416479 77.4248L5.34498 85.8842C5.623 86.3614 6.23523 86.5229 6.71244 86.2449C7.18964 85.9669 7.35111 85.3546 7.0731 84.8774L3.27709 78.3619C3.54031 78.4549 3.83421 78.5573 4.15741 78.668C5.74587 79.2117 8.04339 79.9539 10.8897 80.7512C16.5798 82.345 24.4762 84.1632 33.2935 85.0546C50.8795 86.8325 72.3884 84.9464 87.2206 69.8961C90.6677 66.3982 93.4518 61.1882 95.0841 55.8947C101.903 56.8262 109.954 55.5763 117.066 51.504C128.682 44.8525 134.864 32.3458 138.15 21.6705C139.798 16.3135 140.732 11.3692 141.254 7.76466C141.516 5.9614 141.674 4.49085 141.768 3.46844C141.814 2.95718 141.845 2.55777 141.864 2.28466C141.873 2.14809 141.88 2.04307 141.884 1.97141L141.888 1.88916L141.89 1.86721L141.89 1.8611L141.89 1.85928C141.89 1.8587 141.89 1.85827 140.891 1.80952L141.89 1.85827ZM94.1591 51.3578C94.0164 52.1092 93.8458 52.8671 93.6494 53.626C93.282 53.552 92.9195 53.471 92.5626 53.3831C85.635 51.676 81.1678 47.5128 81.3806 42.1153C81.4907 39.3219 82.9998 37.7462 84.9291 37.0733C86.9318 36.3747 89.4142 36.6515 91.2795 37.7522C92.8532 38.6808 93.889 40.4244 94.372 42.8369C94.8546 45.2474 94.7569 48.2119 94.1591 51.3578Z" fill="#FDBD4D"/>
</svg>
