<svg width="24" height="24" viewBox="0 0 24 24" fill="none" xmlns="http://www.w3.org/2000/svg">
<path fill-rule="evenodd" clip-rule="evenodd" d="M10.054 2.34374C10.5968 1.88107 11.2867 1.62695 12 1.62695C12.7132 1.62695 13.4031 1.88107 13.946 2.34374L15.217 3.42774C15.3774 3.56451 15.5769 3.64711 15.787 3.66374L17.452 3.79674C18.1626 3.85363 18.8298 4.16174 19.3339 4.66585C19.838 5.16995 20.1461 5.8371 20.203 6.54774L20.336 8.21374C20.3528 8.42351 20.4354 8.62263 20.572 8.78274L21.656 10.0537C22.1186 10.5966 22.3728 11.2865 22.3728 11.9997C22.3728 12.713 22.1186 13.4029 21.656 13.9457L20.572 15.2167C20.4352 15.3771 20.3526 15.5766 20.336 15.7867L20.203 17.4517C20.1461 18.1624 19.838 18.8295 19.3339 19.3336C18.8298 19.8377 18.1626 20.1458 17.452 20.2027L15.786 20.3357C15.5762 20.3526 15.3771 20.4352 15.217 20.5717L13.946 21.6557C13.4031 22.1184 12.7132 22.3725 12 22.3725C11.2867 22.3725 10.5968 22.1184 10.054 21.6557L8.78298 20.5717C8.6226 20.435 8.4231 20.3524 8.21298 20.3357L6.54798 20.2027C5.83734 20.1458 5.17019 19.8377 4.66609 19.3336C4.16199 18.8295 3.85388 18.1624 3.79698 17.4517L3.66398 15.7857C3.64715 15.576 3.56456 15.3768 3.42798 15.2167L2.34398 13.9457C1.88132 13.4029 1.6272 12.713 1.6272 11.9997C1.6272 11.2865 1.88132 10.5966 2.34398 10.0537L3.42798 8.78274C3.56475 8.62236 3.64735 8.42286 3.66398 8.21274L3.79698 6.54774C3.85388 5.8371 4.16199 5.16995 4.66609 4.66585C5.17019 4.16174 5.83734 3.85363 6.54798 3.79674L8.21398 3.66374C8.42375 3.6469 8.62287 3.56431 8.78298 3.42774L10.054 2.34374ZM15.707 10.7067C15.8891 10.5181 15.9899 10.2655 15.9877 10.0033C15.9854 9.74114 15.8802 9.49032 15.6948 9.30492C15.5094 9.11951 15.2586 9.01434 14.9964 9.01206C14.7342 9.00978 14.4816 9.11058 14.293 9.29274L11 12.5857L9.70698 11.2927C9.51838 11.1106 9.26578 11.0098 9.00358 11.0121C8.74138 11.0143 8.49057 11.1195 8.30516 11.3049C8.11975 11.4903 8.01458 11.7411 8.01231 12.0033C8.01003 12.2655 8.11082 12.5181 8.29298 12.7067L10.293 14.7067C10.4805 14.8942 10.7348 14.9995 11 14.9995C11.2651 14.9995 11.5195 14.8942 11.707 14.7067L15.707 10.7067Z" fill="white"/>
</svg>
