<svg width="20" height="20" viewBox="0 0 20 20" fill="none" xmlns="http://www.w3.org/2000/svg">
<path fill-rule="evenodd" clip-rule="evenodd" d="M9.47681 2.83008V11.3502L8.11466 9.98346L8.04468 9.9228C7.80038 9.74076 7.45312 9.76021 7.23078 9.98165C6.9862 10.2252 6.98539 10.6209 7.22896 10.8655L9.65896 13.3055L9.66084 13.3072C9.68138 13.3276 9.70334 13.3466 9.72654 13.3641L9.72914 13.3663C9.97419 13.5488 10.3226 13.5285 10.5447 13.3055L12.9747 10.8655L13.035 10.7953C13.2161 10.5503 13.1952 10.2031 12.9728 9.98165L12.9026 9.92128C12.6576 9.74023 12.3104 9.76112 12.089 9.98346L10.7268 11.3507V2.83008L10.7211 2.74527C10.6797 2.44021 10.4182 2.20508 10.1018 2.20508C9.75663 2.20508 9.47681 2.4849 9.47681 2.83008ZM14.9211 17.5985C16.8773 17.5079 18.435 15.8936 18.435 13.915V9.845L18.431 9.67097C18.3402 7.71013 16.7228 6.14916 14.74 6.14916H13.9625L13.8777 6.15487C13.5726 6.19625 13.3375 6.45775 13.3375 6.77416C13.3375 7.11934 13.6173 7.39916 13.9625 7.39916H14.74L14.8837 7.40331C16.1675 7.47766 17.185 8.54187 17.185 9.845V13.915L17.1808 14.0582C17.1067 15.338 16.0459 16.3525 14.7475 16.3525H5.46414L5.32045 16.3483C4.03666 16.2739 3.01831 15.2091 3.01831 13.9067V9.83583L3.02245 9.69268C3.09661 8.41383 4.15801 7.39916 5.45581 7.39916H6.24081L6.32562 7.39346C6.63068 7.35207 6.86581 7.09057 6.86581 6.77416C6.86581 6.42898 6.58599 6.14916 6.24081 6.14916H5.45581L5.27718 6.15341C3.32398 6.2466 1.76831 7.8598 1.76831 9.83583V13.9067L1.77233 14.0806C1.86319 16.0409 3.48145 17.6025 5.46414 17.6025H14.7475L14.9211 17.5985Z" fill="#A69FAD"/>
</svg>
