<svg width="170" height="39" viewBox="0 0 170 39" fill="none" xmlns="http://www.w3.org/2000/svg">
<path d="M14.36 29.52C12.4667 29.52 10.6867 29.1467 9.02 28.4C7.35333 27.64 5.88667 26.5933 4.62 25.26C3.36667 23.9267 2.38 22.3867 1.66 20.64C0.953333 18.88 0.6 17 0.6 15C0.6 12.9867 0.953333 11.1067 1.66 9.36C2.38 7.6 3.36667 6.06 4.62 4.74C5.88667 3.40667 7.35333 2.36667 9.02 1.62C10.6867 0.859998 12.4667 0.479998 14.36 0.479998C16.6267 0.479998 18.7133 1.00666 20.62 2.06C22.5267 3.1 24.1067 4.49333 25.36 6.24L21 8.58C20.2133 7.60667 19.2333 6.82667 18.06 6.24C16.9 5.65333 15.6667 5.36 14.36 5.36C13.1333 5.36 11.98 5.61333 10.9 6.12C9.82 6.61333 8.87333 7.30667 8.06 8.2C7.24667 9.08 6.61333 10.1067 6.16 11.28C5.70667 12.44 5.48 13.68 5.48 15C5.48 16.3333 5.70667 17.58 6.16 18.74C6.62667 19.9 7.26667 20.9267 8.08 21.82C8.89333 22.7 9.83333 23.3933 10.9 23.9C11.98 24.3933 13.1333 24.64 14.36 24.64C15.6933 24.64 16.9333 24.3467 18.08 23.76C19.24 23.16 20.2133 22.3733 21 21.4L25.36 23.76C24.1067 25.4933 22.5267 26.8867 20.62 27.94C18.7133 28.9933 16.6267 29.52 14.36 29.52ZM36.0797 29.52C34.2397 29.52 32.5597 29.0467 31.0397 28.1C29.533 27.1533 28.3264 25.8867 27.4197 24.3C26.5264 22.7 26.0797 20.9333 26.0797 19C26.0797 17.5333 26.3397 16.1667 26.8597 14.9C27.3797 13.62 28.093 12.5 28.9997 11.54C29.9197 10.5667 30.9864 9.80667 32.1997 9.26C33.413 8.71333 34.7064 8.44 36.0797 8.44C37.9197 8.44 39.593 8.91333 41.0997 9.86C42.6197 10.8067 43.8264 12.08 44.7197 13.68C45.6264 15.28 46.0797 17.0533 46.0797 19C46.0797 20.4533 45.8197 21.8133 45.2997 23.08C44.7797 24.3467 44.0597 25.4667 43.1397 26.44C42.233 27.4 41.173 28.1533 39.9597 28.7C38.7597 29.2467 37.4664 29.52 36.0797 29.52ZM36.0797 24.64C37.053 24.64 37.9264 24.38 38.6997 23.86C39.473 23.34 40.0797 22.6533 40.5197 21.8C40.973 20.9467 41.1997 20.0133 41.1997 19C41.1997 17.96 40.9664 17.0133 40.4997 16.16C40.0464 15.2933 39.4264 14.6067 38.6397 14.1C37.8664 13.58 37.013 13.32 36.0797 13.32C35.1197 13.32 34.253 13.58 33.4797 14.1C32.7064 14.62 32.093 15.3133 31.6397 16.18C31.1864 17.0467 30.9597 17.9867 30.9597 19C30.9597 20.0533 31.193 21.0067 31.6597 21.86C32.1264 22.7133 32.7464 23.3933 33.5197 23.9C34.3064 24.3933 35.1597 24.64 36.0797 24.64ZM48.3938 29V9H53.2738V10.78C53.9538 10.06 54.7671 9.49333 55.7138 9.08C56.6604 8.65333 57.6804 8.44 58.7738 8.44C60.1604 8.44 61.4338 8.76667 62.5938 9.42C63.7671 10.0733 64.7004 10.9467 65.3938 12.04C66.1004 10.9467 67.0338 10.0733 68.1938 9.42C69.3538 8.76667 70.6271 8.44 72.0138 8.44C73.4804 8.44 74.8071 8.8 75.9938 9.52C77.1938 10.2267 78.1471 11.18 78.8538 12.38C79.5738 13.5667 79.9338 14.8933 79.9338 16.36V29H75.0538V17.66C75.0538 16.8867 74.8604 16.18 74.4738 15.54C74.1004 14.8867 73.5938 14.3667 72.9538 13.98C72.3271 13.58 71.6204 13.38 70.8338 13.38C70.0471 13.38 69.3338 13.5733 68.6938 13.96C68.0671 14.3333 67.5604 14.84 67.1738 15.48C66.7871 16.12 66.5938 16.8467 66.5938 17.66V29H61.7138V17.66C61.7138 16.8467 61.5271 16.12 61.1538 15.48C60.7804 14.84 60.2738 14.3333 59.6338 13.96C58.9938 13.5733 58.2804 13.38 57.4938 13.38C56.7204 13.38 56.0138 13.58 55.3738 13.98C54.7338 14.3667 54.2204 14.8867 53.8338 15.54C53.4604 16.18 53.2738 16.8867 53.2738 17.66V29H48.3938ZM88.0206 39H83.1406V9H88.0206V11.54C88.674 10.6333 89.474 9.9 90.4206 9.34C91.3806 8.76667 92.5006 8.48 93.7806 8.48C95.2473 8.48 96.614 8.75333 97.8806 9.3C99.1473 9.84667 100.261 10.6067 101.221 11.58C102.194 12.54 102.947 13.6533 103.481 14.92C104.027 16.1867 104.301 17.5467 104.301 19C104.301 20.4533 104.027 21.82 103.481 23.1C102.947 24.38 102.194 25.5067 101.221 26.48C100.261 27.44 99.1473 28.1933 97.8806 28.74C96.614 29.2867 95.2473 29.56 93.7806 29.56C92.5006 29.56 91.3806 29.28 90.4206 28.72C89.474 28.1467 88.674 27.4067 88.0206 26.5V39ZM93.7206 13.18C92.7073 13.18 91.8006 13.4467 91.0006 13.98C90.2006 14.5 89.574 15.2 89.1206 16.08C88.6673 16.96 88.4406 17.9333 88.4406 19C88.4406 20.0667 88.6673 21.0467 89.1206 21.94C89.574 22.82 90.2006 23.5267 91.0006 24.06C91.8006 24.58 92.7073 24.84 93.7206 24.84C94.7473 24.84 95.6873 24.58 96.5406 24.06C97.394 23.54 98.074 22.84 98.5806 21.96C99.0873 21.0667 99.3406 20.08 99.3406 19C99.3406 17.9333 99.0873 16.96 98.5806 16.08C98.074 15.2 97.394 14.5 96.5406 13.98C95.7006 13.4467 94.7606 13.18 93.7206 13.18ZM121.796 9H126.676V29H121.796L121.576 26.52C121.029 27.4133 120.302 28.14 119.396 28.7C118.502 29.2467 117.442 29.52 116.216 29.52C114.736 29.52 113.349 29.24 112.056 28.68C110.762 28.12 109.622 27.3467 108.636 26.36C107.662 25.3733 106.896 24.2333 106.336 22.94C105.789 21.6467 105.516 20.26 105.516 18.78C105.516 17.3533 105.776 16.0133 106.296 14.76C106.829 13.5067 107.569 12.4067 108.516 11.46C109.462 10.5133 110.556 9.77333 111.796 9.24C113.036 8.70667 114.369 8.44 115.796 8.44C117.116 8.44 118.296 8.73333 119.336 9.32C120.389 9.90667 121.282 10.6533 122.016 11.56L121.796 9ZM116.096 24.82C117.136 24.82 118.056 24.56 118.856 24.04C119.656 23.52 120.282 22.82 120.736 21.94C121.189 21.0467 121.416 20.0667 121.416 19C121.416 17.92 121.189 16.94 120.736 16.06C120.282 15.1667 119.649 14.46 118.836 13.94C118.036 13.42 117.122 13.16 116.096 13.16C115.069 13.16 114.129 13.4267 113.276 13.96C112.436 14.48 111.762 15.18 111.256 16.06C110.762 16.94 110.516 17.92 110.516 19C110.516 20.08 110.769 21.06 111.276 21.94C111.782 22.82 112.456 23.52 113.296 24.04C114.149 24.56 115.082 24.82 116.096 24.82ZM148.181 16.36V29H143.301V17.64C143.301 16.8533 143.108 16.14 142.721 15.5C142.334 14.8467 141.814 14.3333 141.161 13.96C140.521 13.5733 139.808 13.38 139.021 13.38C138.234 13.38 137.514 13.5733 136.861 13.96C136.221 14.3333 135.708 14.8467 135.321 15.5C134.948 16.14 134.761 16.8533 134.761 17.64V29H129.881L129.861 9H134.741L134.761 10.78C135.441 10.06 136.254 9.49333 137.201 9.08C138.148 8.65333 139.168 8.44 140.261 8.44C141.714 8.44 143.041 8.8 144.241 9.52C145.441 10.2267 146.394 11.18 147.101 12.38C147.821 13.5667 148.181 14.8933 148.181 16.36ZM163.992 9H169.172L158.232 39H153.052L156.672 29L149.472 9H154.812L159.112 22.32L163.992 9Z" fill="#CFCFDE"/>
</svg>
